<?xml version="1.0" encoding="utf-8"?>
<!-- Generator: Adobe Illustrator 16.0.0, SVG Export Plug-In . SVG Version: 6.00 Build 0)  -->
<!DOCTYPE svg PUBLIC "-//W3C//DTD SVG 1.1//EN" "http://www.w3.org/Graphics/SVG/1.1/DTD/svg11.dtd">
<svg version="1.1" id="Layer_1" xmlns="http://www.w3.org/2000/svg" xmlns:xlink="http://www.w3.org/1999/xlink" x="0px" y="0px"
	 width="500px" height="500px" viewBox="0 0 500 500" enable-background="new 0 0 500 500" xml:space="preserve">
<g>
	<path fill="#08A9E1" d="M210.42,369.773c-4.867,2.676-10.45,4.207-16.399,4.207c-18.548,0-33.63-14.799-34.113-33.231
		c-8.2-7.605-15.413-16.255-21.428-25.74l-51.205,29.442v90.66l78.515,45.33l78.513-45.33v-59.841
		C232.549,374.938,221.19,373.037,210.42,369.773z"/>
	<path fill="#2280C3" d="M164.949,9.98l-78.515,45.33v90.66l52.237,30.049c5.97-9.357,13.113-17.894,21.213-25.412
		c0-0.01,0-0.019,0-0.027c0-18.855,15.284-34.14,34.137-34.14c6.383,0,12.353,1.755,17.459,4.805
		c10.196-2.992,20.913-4.764,31.983-5.149V55.311L164.949,9.98z"/>
	<path fill="#1E6598" d="M121.812,215.972c2.66-11.349,6.804-22.126,12.229-32.109l-50.942-29.412l-78.515,45.33v90.66l78.515,45.33
		l50.456-29.22c-5.348-10.039-9.418-20.859-11.986-32.253c-9.764-6.006-16.279-16.782-16.279-29.087
		C105.289,232.803,111.912,221.948,121.812,215.972z"/>
	<path fill="#47BCA0" d="M357.8,314.729c-5.732,9.09-12.558,17.425-20.3,24.807c0,0.104,0.013,0.203,0.013,0.307
		c0,18.854-15.284,34.139-34.141,34.139c-6.129,0-11.87-1.629-16.841-4.459c-10.883,3.378-22.379,5.354-34.277,5.732v59.857
		l78.512,45.33l78.518-45.33v-90.66L357.8,314.729z"/>
	<path fill="#08A9E1" d="M330.766,9.98l-78.512,45.33v60.771c11.524,0.367,22.669,2.238,33.244,5.424
		c5.199-3.207,11.316-5.065,17.874-5.065c18.856,0,34.141,15.285,34.141,34.14c0,0.4-0.034,0.791-0.05,1.187
		c7.566,7.207,14.262,15.319,19.914,24.161l51.906-29.958v-90.66L330.766,9.98z"/>
	<path fill="#4AC3D2" d="M414.299,154.451l-51.861,30.125c5.083,9.498,9.016,19.701,11.617,30.426
		c10.741,5.75,18.051,17.073,18.051,30.109c0,12.909-7.167,24.137-17.738,29.938c-2.531,10.929-6.452,21.322-11.551,30.998
		l51.482,29.724l78.514-45.33v-90.66L414.299,154.451z"/>
	<path fill="#0763A6" d="M243.463,116.097c-11.07,0.385-21.787,2.157-31.983,5.149c-5.106-3.05-11.076-4.805-17.459-4.805
		c-18.853,0-34.137,15.285-34.137,34.14c0,0.009,0,0.018,0,0.027c-8.1,7.518-15.243,16.054-21.213,25.412l26.498,15.153
		l15.722-9.077c4.042,1.687,8.479,2.624,13.13,2.624c17.367,0,31.693-12.969,33.851-29.748l15.592-9.002V116.097z"/>
	<path fill="#115782" d="M173.568,245.211c0-11.054-5.257-20.875-13.405-27.114v-19.195l-26.123-15.039
		c-5.425,9.983-9.569,20.76-12.229,32.109c-9.9,5.976-16.523,16.831-16.523,29.239c0,12.305,6.516,23.081,16.279,29.087
		c2.568,11.394,6.639,22.214,11.986,32.253l26.609-15.465v-18.762C168.311,266.085,173.568,256.264,173.568,245.211z"/>
	<path fill="#018CB4" d="M227.688,334.193c-2.694-16.166-16.735-28.49-33.667-28.49c-4.2,0-8.219,0.77-11.935,2.16l-15.486-8.941
		l-28.12,16.087c6.015,9.485,13.228,18.135,21.428,25.74c0.482,18.433,15.565,33.231,34.113,33.231
		c5.949,0,11.532-1.531,16.399-4.207c10.77,3.264,22.129,5.164,33.883,5.497v-31.486L227.688,334.193z"/>
	<path fill="#00AA86" d="M357.8,314.729l-28.091-16.262l-15.549,8.975c-3.391-1.129-7.016-1.738-10.788-1.738
		c-16.505,0-30.274,11.711-33.449,27.28l-17.669,10.202v32.068c11.898-0.379,23.395-2.354,34.277-5.732
		c4.971,2.83,10.712,4.459,16.841,4.459c18.856,0,34.141-15.285,34.141-34.139c0-0.104-0.013-0.203-0.013-0.307
		C345.242,332.153,352.067,323.818,357.8,314.729z"/>
	<path fill="#02A9B3" d="M374.055,215.002c-2.602-10.726-6.534-20.929-11.617-30.426l-27.086,15.852v19.125
		c-7.063,6.253-11.522,15.381-11.522,25.559c0,10.178,4.46,19.305,11.522,25.559v19.521l27.465,15.855
		c5.099-9.676,9.02-20.069,11.551-30.998c10.571-5.801,17.738-17.028,17.738-29.938
		C392.105,232.075,384.796,220.752,374.055,215.002z"/>
	<path fill="#018CB4" d="M357.377,175.929c-5.652-8.842-12.348-16.954-19.914-24.161c0.016-0.396,0.05-0.787,0.05-1.187
		c0-18.855-15.284-34.14-34.141-34.14c-6.558,0-12.675,1.858-17.874,5.065c-10.575-3.186-21.72-5.057-33.244-5.424v30.003
		l17.441,10.069c2.66,16.202,16.722,28.565,33.677,28.565c4.231,0,8.271-0.782,12.009-2.188l15.271,8.817L357.377,175.929z"/>
</g>
<ellipse fill="#009DD9" cx="249.562" cy="245.066" rx="118.177" ry="115.612"/>
<g>
	<path fill="#FFFFFF" d="M301.909,230.861h-9.723c-1.439,0-2.608,1.167-2.608,2.609v5.433h-4.433v-5.433
		c0-1.442-1.169-2.609-2.61-2.609H271.74v-5.391h10.795c1.441,0,2.61-1.168,2.61-2.608V181.17c0-6.304-5.13-11.431-11.433-11.431
		H252.17v-6.507c0-1.44-1.166-2.608-2.607-2.608s-2.608,1.168-2.608,2.608v6.506h-21.543c-6.303,0-11.431,5.127-11.431,11.43v41.692
		c0,1.44,1.168,2.608,2.608,2.608h10.797v5.391h-10.797c-1.439,0-2.608,1.167-2.608,2.609v5.433h-4.436v-5.433
		c0-1.442-1.167-2.609-2.607-2.609h-9.722c-1.442,0-2.609,1.167-2.609,2.609v52.544c0,1.439,1.167,2.607,2.609,2.607h9.722
		c1.44,0,2.607-1.168,2.607-2.607v-31.172h4.436v21.193c0,1.44,1.167,2.605,2.608,2.605h4.628v23.529h-3.289
		c-1.44,0-2.608,1.166-2.608,2.609v12.329c0,1.442,1.168,2.607,2.608,2.607h21.983c1.44,0,2.608-1.165,2.608-2.607v-12.329
		c0-1.443-1.168-2.609-2.608-2.609h-3.29v-23.529h25.883v23.529h-3.291c-1.441,0-2.607,1.166-2.607,2.609v12.329
		c0,1.442,1.166,2.607,2.607,2.607h21.982c1.441,0,2.607-1.165,2.607-2.607v-12.329c0-1.443-1.166-2.609-2.607-2.609h-3.289v-23.529
		h4.63c1.44,0,2.609-1.165,2.609-2.605v-21.193h4.433v31.168c0,1.443,1.169,2.609,2.609,2.609h9.723
		c1.439,0,2.608-1.166,2.608-2.609v-52.542C304.518,232.028,303.35,230.861,301.909,230.861L301.909,230.861z M204.329,283.404
		h-4.506v-47.327h4.506V283.404z M213.98,249.625h-4.436v-5.506h4.436V249.625z M219.196,220.253V181.17
		c0-3.428,2.789-6.215,6.215-6.215h48.302c3.427,0,6.215,2.787,6.215,6.215v39.083H219.196z M266.523,225.47v5.39h-33.922v-5.39
		H266.523z M237.303,307.385v7.115h-16.766v-7.115H237.303z M226.435,302.17v-23.525h4.971v23.525H226.435z M278.587,307.385v7.115
		h-16.765v-7.115H278.587z M267.719,302.17v-23.525h4.971v23.525H267.719z M279.928,273.427h-60.731v-37.349h60.73L279.928,273.427
		L279.928,273.427z M289.578,249.625h-4.433v-5.506h4.433V249.625z M299.301,283.404h-4.507v-47.327h4.507V283.404z
		 M299.301,283.404"/>
	<path fill="#FFFFFF" d="M233.479,186.958c-6.465,0-11.724,5.258-11.724,11.722c0,6.464,5.258,11.722,11.724,11.722
		c6.462,0,11.722-5.258,11.722-11.722C245.2,192.216,239.941,186.958,233.479,186.958L233.479,186.958z M233.479,205.185
		c-3.588,0-6.507-2.917-6.507-6.506c0-3.588,2.919-6.506,6.507-6.506c3.585,0,6.506,2.917,6.506,6.506
		C239.984,202.267,237.064,205.185,233.479,205.185L233.479,205.185z M233.479,205.185"/>
	<path fill="#FFFFFF" d="M265.646,186.958c-6.463,0-11.723,5.258-11.723,11.722c0,6.464,5.26,11.722,11.723,11.722
		c6.465,0,11.725-5.258,11.725-11.722C277.371,192.216,272.111,186.958,265.646,186.958L265.646,186.958z M265.646,205.185
		c-3.588,0-6.506-2.918-6.506-6.506c0-3.588,2.918-6.506,6.506-6.506s6.507,2.917,6.507,6.506
		C272.153,202.267,269.234,205.185,265.646,205.185L265.646,205.185z M265.646,205.185"/>
	<path fill="#FFFFFF" d="M249.563,244.8c-9.421,0-17.084,7.665-17.084,17.086c0,1.439,1.167,2.607,2.608,2.607h28.953
		c1.44,0,2.607-1.168,2.607-2.607C266.646,252.465,258.982,244.8,249.563,244.8L249.563,244.8z M237.982,259.277
		c1.192-5.293,5.932-9.259,11.581-9.259c5.648,0,10.387,3.966,11.58,9.259H237.982z M237.982,259.277"/>
	<path fill="#FFFFFF" d="M274.152,243.656c0,1.439-1.166,2.607-2.607,2.607c-1.44,0-2.609-1.168-2.609-2.607
		c0-1.441,1.169-2.607,2.609-2.607C272.986,241.049,274.152,242.215,274.152,243.656L274.152,243.656z M274.152,243.656"/>
	<path fill="#FFFFFF" d="M230.189,243.656c0,1.439-1.168,2.607-2.608,2.607c-1.441,0-2.609-1.168-2.609-2.607
		c0-1.441,1.167-2.607,2.609-2.607C229.021,241.049,230.189,242.215,230.189,243.656L230.189,243.656z M230.189,243.656"/>
</g>
<g>
	<path fill="#FFFFFF" d="M130.212,61.134c-1.078,1.95-1.538,2.774-1.538,4.598v2.14c0,0.111-0.063,0.174-0.174,0.174h-1.459
		c-0.111,0-0.174-0.063-0.174-0.174v-2.14c0-1.823-0.444-2.648-1.538-4.598l-2.331-3.964c-0.079-0.111-0.016-0.206,0.111-0.206
		h1.602c0.095,0,0.158,0.032,0.206,0.111l1.712,2.838c0.444,0.745,0.761,1.474,1.015,2.14c0.063,0.158,0.206,0.158,0.254,0
		c0.253-0.666,0.603-1.395,1.015-2.14l1.728-2.838c0.047-0.08,0.111-0.111,0.206-0.111h1.601c0.127,0,0.19,0.095,0.111,0.206
		L130.212,61.134z"/>
	<path fill="#FFFFFF" d="M139.901,64.193c0,2.473-1.395,4.027-3.646,4.027c-2.267,0-3.662-1.554-3.662-4.027
		c0-2.441,1.395-3.995,3.662-3.995C138.506,60.198,139.901,61.752,139.901,64.193z M134.336,64.193c0,1.522,0.713,2.426,1.918,2.426
		c1.173,0,1.903-0.904,1.903-2.426c0-1.506-0.729-2.41-1.903-2.41C135.05,61.784,134.336,62.688,134.336,64.193z"/>
	<path fill="#FFFFFF" d="M147.021,67.253c-0.095-0.19-0.19-0.175-0.364-0.016c-0.619,0.698-1.411,0.967-2.188,0.967
		c-1.808,0-2.901-1.126-2.901-2.997v-4.677c0-0.111,0.063-0.174,0.174-0.174h1.411c0.111,0,0.174,0.063,0.174,0.174v4.486
		c0,0.999,0.523,1.602,1.379,1.602c1.173,0,1.855-0.856,1.855-2.394v-3.694c0-0.111,0.063-0.174,0.174-0.174h1.411
		c0.111,0,0.174,0.063,0.174,0.174v7.34c0,0.111-0.063,0.174-0.174,0.174h-0.793c-0.111,0-0.174-0.047-0.19-0.159L147.021,67.253z"
		/>
	<path fill="#FFFFFF" d="M154.871,61.609c0,0.111-0.063,0.174-0.174,0.174c-1.728,0.079-2.489,1.284-2.489,4.201v1.887
		c0,0.111-0.063,0.174-0.174,0.174h-1.411c-0.111,0-0.175-0.063-0.175-0.174v-7.34c0-0.111,0.063-0.174,0.175-0.174h0.792
		c0.111,0,0.174,0.047,0.206,0.143l0.254,0.904c0.095,0.174,0.174,0.206,0.317,0.047c0.634-0.824,1.348-1.221,2.505-1.252
		c0.111,0,0.174,0.063,0.174,0.174V61.609z"/>
	<path fill="#FFFFFF" d="M165.558,64.304c-0.476,1.221-0.951,2.584-1.221,3.599c-0.032,0.095-0.095,0.143-0.206,0.143h-1.681
		c-0.111,0-0.174-0.047-0.206-0.143c-0.27-1.015-0.745-2.362-1.221-3.599l-1.57-3.741c-0.047-0.127,0.016-0.206,0.143-0.206h1.474
		c0.095,0,0.159,0.047,0.206,0.126l1.126,2.664c0.349,0.936,0.634,1.902,0.761,2.616c0.032,0.174,0.206,0.174,0.254,0
		c0.111-0.714,0.396-1.697,0.761-2.616l1.125-2.664c0.048-0.079,0.111-0.126,0.207-0.126h1.474c0.127,0,0.19,0.079,0.143,0.206
		L165.558,64.304z"/>
	<path fill="#FFFFFF" d="M171.029,67.872c0,0.111-0.063,0.174-0.174,0.174h-1.411c-0.111,0-0.174-0.063-0.174-0.174v-5.945h-0.777
		c-0.111,0-0.174-0.063-0.174-0.174v-1.221c0-0.111,0.063-0.174,0.174-0.174h2.362c0.111,0,0.174,0.063,0.174,0.174V67.872z
		 M171.013,57.614c0,0.682-0.38,1.078-1.046,1.078c-0.666,0-1.062-0.396-1.062-1.078c0-0.666,0.396-1.063,1.062-1.063
		C170.633,56.552,171.013,56.948,171.013,57.614z"/>
	<path fill="#FFFFFF" d="M177.578,61.609c0,0.111-0.063,0.174-0.174,0.174c-1.728,0.079-2.489,1.284-2.489,4.201v1.887
		c0,0.111-0.063,0.174-0.174,0.174h-1.411c-0.111,0-0.175-0.063-0.175-0.174v-7.34c0-0.111,0.063-0.174,0.175-0.174h0.792
		c0.111,0,0.174,0.047,0.206,0.143l0.254,0.904c0.095,0.174,0.174,0.206,0.317,0.047c0.634-0.824,1.348-1.221,2.505-1.252
		c0.111,0,0.174,0.063,0.174,0.174V61.609z"/>
	<path fill="#FFFFFF" d="M183.493,60.357c0.111,0,0.174,0.063,0.174,0.174v1.221c0,0.111-0.063,0.174-0.174,0.174h-1.775v3.853
		c0,0.539,0.238,0.84,0.618,0.84c0.143,0,0.286-0.016,0.412-0.063c0.111-0.047,0.19-0.032,0.238,0.079l0.507,1.078
		c0.048,0.095,0.016,0.174-0.079,0.238c-0.285,0.159-0.698,0.27-1.078,0.27c-1.506,0-2.378-0.904-2.378-2.441v-3.853h-0.777
		c-0.111,0-0.174-0.063-0.174-0.174v-1.221c0-0.111,0.063-0.174,0.174-0.174h0.777v-1.823c0-0.095,0.047-0.159,0.143-0.19
		l1.411-0.476c0.126-0.032,0.206,0.016,0.206,0.143v2.347H183.493z"/>
	<path fill="#FFFFFF" d="M190.802,67.253c-0.095-0.19-0.19-0.175-0.364-0.016c-0.619,0.698-1.411,0.967-2.188,0.967
		c-1.808,0-2.901-1.126-2.901-2.997v-4.677c0-0.111,0.063-0.174,0.174-0.174h1.411c0.111,0,0.174,0.063,0.174,0.174v4.486
		c0,0.999,0.523,1.602,1.379,1.602c1.173,0,1.855-0.856,1.855-2.394v-3.694c0-0.111,0.063-0.174,0.174-0.174h1.411
		c0.111,0,0.174,0.063,0.174,0.174v7.34c0,0.111-0.063,0.174-0.174,0.174h-0.793c-0.111,0-0.174-0.047-0.19-0.159L190.802,67.253z"
		/>
	<path fill="#FFFFFF" d="M195.196,60.436c0.539-0.159,1.078-0.238,1.728-0.238c2.14,0,3.456,1.11,3.456,3.028v4.646
		c0,0.111-0.063,0.174-0.174,0.174h-0.792c-0.111,0-0.174-0.047-0.206-0.143l-0.127-0.492c-0.095-0.222-0.19-0.222-0.396-0.032
		c-0.491,0.539-1.205,0.84-2.172,0.84c-1.76,0-2.743-0.904-2.743-2.394s1.015-2.441,2.885-2.441h1.982V63.29
		c0-0.967-0.619-1.49-1.792-1.49c-0.46,0-0.856,0.048-1.237,0.159l-0.571,0.174c-0.111,0.032-0.19-0.016-0.222-0.127l-0.349-1.173
		c-0.032-0.111,0.016-0.19,0.127-0.222L195.196,60.436z M196.654,64.764c-0.777,0-1.142,0.365-1.142,0.904
		c0,0.618,0.428,0.999,1.189,0.999c1.252,0,1.934-0.618,1.934-1.792v-0.111H196.654z"/>
	<path fill="#FFFFFF" d="M204.155,66.191c0,0.27,0.111,0.428,0.317,0.428c0.047,0,0.079,0,0.111,0
		c0.111-0.016,0.174-0.016,0.222,0.095l0.476,1.125c0.047,0.111,0.016,0.19-0.08,0.238c-0.222,0.095-0.491,0.143-0.729,0.143
		c-1.3,0-2.077-0.745-2.077-2.029v-9.338c0-0.111,0.063-0.174,0.175-0.174h1.411c0.111,0,0.174,0.063,0.174,0.174V66.191z"/>
	<path fill="#FFFFFF" d="M137.927,87.043c-0.571,0.143-1.11,0.206-1.617,0.206c-2.394,0-3.742-1.554-3.742-4.011
		c0-2.474,1.363-4.011,3.678-4.011c1.902,0,3.06,0.951,3.06,2.521c0,1.221-0.745,1.918-2.331,2.156l-2.489,0.381
		c0.174,0.84,0.809,1.363,1.807,1.363c0.444,0,0.92-0.048,1.252-0.159l0.698-0.174c0.111-0.032,0.19,0.016,0.222,0.127l0.317,1.189
		c0.032,0.111-0.016,0.19-0.127,0.222L137.927,87.043z M136.706,82.541c0.555-0.095,0.856-0.349,0.856-0.761
		c0-0.634-0.492-0.967-1.348-0.967c-1.046,0-1.76,0.65-1.887,2.108L136.706,82.541z"/>
	<path fill="#FFFFFF" d="M142.352,80.163c0.095,0.19,0.19,0.19,0.38,0.016c0.603-0.682,1.3-0.951,2.061-0.951
		c0.904,0,1.633,0.444,2.061,1.062c0.206,0.222,0.349,0.175,0.539,0c0.698-0.824,1.411-1.062,2.172-1.062
		c1.776,0,2.791,1.125,2.791,2.997V86.9c0,0.111-0.063,0.174-0.175,0.174h-1.427c-0.111,0-0.174-0.063-0.174-0.174v-4.487
		c0-0.999-0.412-1.601-1.252-1.601c-1.205,0-1.744,0.935-1.744,2.394V86.9c0,0.111-0.063,0.174-0.175,0.174h-1.427
		c-0.111,0-0.174-0.063-0.174-0.174v-4.502c0-0.983-0.444-1.585-1.252-1.585c-1.221,0-1.744,0.935-1.744,2.394V86.9
		c0,0.111-0.063,0.174-0.174,0.174h-1.411c-0.111,0-0.175-0.063-0.175-0.174v-7.34c0-0.111,0.063-0.174,0.175-0.174h0.792
		c0.111,0,0.174,0.047,0.19,0.158L142.352,80.163z"/>
	<path fill="#FFFFFF" d="M155.719,80.194c0.063,0.174,0.19,0.158,0.301,0.016c0.618-0.698,1.363-0.983,2.219-0.983
		c2.077,0,3.33,1.538,3.33,3.995c0,2.489-1.332,4.027-3.551,4.027c-0.571,0-0.983-0.095-1.443-0.301l-0.428-0.19v3.551
		c0,0.111-0.063,0.174-0.174,0.174h-1.411c-0.111,0-0.175-0.063-0.175-0.174V79.56c0-0.111,0.063-0.174,0.175-0.174h0.792
		c0.111,0,0.174,0.047,0.19,0.143L155.719,80.194z M156.607,85.378c0.38,0.19,0.824,0.27,1.3,0.27c1.221,0,1.918-0.904,1.918-2.426
		c0-1.506-0.697-2.41-1.871-2.41c-1.189,0-1.823,0.983-1.823,2.362v1.981L156.607,85.378z"/>
	<path fill="#FFFFFF" d="M165.075,85.22c0,0.27,0.111,0.428,0.317,0.428c0.047,0,0.079,0,0.111,0
		c0.111-0.016,0.174-0.016,0.222,0.095l0.476,1.125c0.047,0.111,0.016,0.19-0.08,0.238c-0.222,0.095-0.491,0.143-0.729,0.143
		c-1.3,0-2.077-0.745-2.077-2.029v-9.338c0-0.111,0.063-0.174,0.175-0.174h1.411c0.111,0,0.174,0.063,0.174,0.174V85.22z"/>
	<path fill="#FFFFFF" d="M174.509,83.222c0,2.473-1.395,4.027-3.646,4.027c-2.267,0-3.662-1.554-3.662-4.027
		c0-2.441,1.395-3.995,3.662-3.995C173.114,79.227,174.509,80.781,174.509,83.222z M168.944,83.222c0,1.522,0.713,2.426,1.918,2.426
		c1.173,0,1.903-0.904,1.903-2.426c0-1.506-0.729-2.41-1.903-2.41C169.658,80.813,168.944,81.716,168.944,83.222z"/>
	<path fill="#FFFFFF" d="M178.76,90.341c-0.032,0.095-0.095,0.143-0.19,0.143h-1.458c-0.127,0-0.19-0.08-0.143-0.206l0.84-1.998
		c0.428-1.126,0.27-2.077-0.301-3.567l-2.109-5.121c-0.047-0.127,0.016-0.206,0.143-0.206h1.474c0.095,0,0.159,0.047,0.206,0.126
		l1.252,2.997c0.27,0.713,0.555,1.712,0.65,2.314c0.032,0.159,0.206,0.159,0.253-0.016c0.111-0.586,0.412-1.617,0.682-2.299
		l1.237-2.997c0.047-0.079,0.111-0.126,0.206-0.126h1.475c0.126,0,0.19,0.079,0.143,0.206L178.76,90.341z"/>
	<path fill="#FFFFFF" d="M189.526,87.043c-0.571,0.143-1.11,0.206-1.617,0.206c-2.394,0-3.742-1.554-3.742-4.011
		c0-2.474,1.363-4.011,3.678-4.011c1.902,0,3.06,0.951,3.06,2.521c0,1.221-0.745,1.918-2.331,2.156l-2.489,0.381
		c0.174,0.84,0.809,1.363,1.807,1.363c0.444,0,0.919-0.048,1.252-0.159l0.698-0.174c0.111-0.032,0.19,0.016,0.222,0.127l0.317,1.189
		c0.032,0.111-0.016,0.19-0.127,0.222L189.526,87.043z M188.306,82.541c0.555-0.095,0.856-0.349,0.856-0.761
		c0-0.634-0.492-0.967-1.348-0.967c-1.046,0-1.76,0.65-1.887,2.108L188.306,82.541z"/>
	<path fill="#FFFFFF" d="M197.629,87.043c-0.571,0.143-1.11,0.206-1.617,0.206c-2.394,0-3.742-1.554-3.742-4.011
		c0-2.474,1.363-4.011,3.678-4.011c1.902,0,3.06,0.951,3.06,2.521c0,1.221-0.745,1.918-2.331,2.156l-2.489,0.381
		c0.174,0.84,0.809,1.363,1.807,1.363c0.444,0,0.92-0.048,1.252-0.159l0.698-0.174c0.111-0.032,0.19,0.016,0.222,0.127l0.317,1.189
		c0.032,0.111-0.016,0.19-0.127,0.222L197.629,87.043z M196.408,82.541c0.555-0.095,0.856-0.349,0.856-0.761
		c0-0.634-0.492-0.967-1.348-0.967c-1.046,0-1.76,0.65-1.887,2.108L196.408,82.541z"/>
</g>
<g>
	<path fill="#FFFFFF" d="M21.897,217.68c3.012,0,4.835,2.141,4.835,5.549c0,3.361-1.855,5.533-4.835,5.533h-3.71
		c-0.111,0-0.174-0.063-0.174-0.174v-10.733c0-0.111,0.063-0.174,0.174-0.174H21.897z M19.804,227.161h2.093
		c1.871,0,2.997-1.443,2.997-3.932c0-2.505-1.126-3.947-2.997-3.947h-2.093V227.161z"/>
	<path fill="#FFFFFF" d="M35.533,224.909c0,2.473-1.395,4.027-3.646,4.027c-2.267,0-3.662-1.554-3.662-4.027
		c0-2.441,1.395-3.995,3.662-3.995C34.138,220.914,35.533,222.468,35.533,224.909z M29.969,224.909c0,1.522,0.713,2.426,1.918,2.426
		c1.173,0,1.903-0.904,1.903-2.426c0-1.506-0.729-2.41-1.903-2.41C30.682,222.5,29.969,223.403,29.969,224.909z"/>
	<path fill="#FFFFFF" d="M42.131,228.73c-0.476,0.127-0.983,0.206-1.475,0.206c-2.425,0-3.757-1.554-3.757-4.027
		c0-2.458,1.316-3.995,3.805-3.995c0.412,0,0.872,0.047,1.363,0.19l0.682,0.19c0.111,0.032,0.159,0.111,0.127,0.222l-0.365,1.189
		c-0.032,0.095-0.111,0.143-0.206,0.111l-0.539-0.143c-0.396-0.127-0.777-0.174-1.062-0.174c-1.411,0-2.061,0.904-2.061,2.394
		c0,1.538,0.682,2.441,2.029,2.441c0.333,0,0.777-0.063,1.173-0.174l0.523-0.159c0.111-0.032,0.19,0.016,0.222,0.111l0.365,1.189
		c0.032,0.111-0.016,0.19-0.127,0.222L42.131,228.73z"/>
	<path fill="#FFFFFF" d="M50.17,227.969c-0.095-0.19-0.19-0.175-0.364-0.016c-0.619,0.698-1.411,0.967-2.188,0.967
		c-1.808,0-2.901-1.126-2.901-2.997v-4.677c0-0.111,0.063-0.174,0.174-0.174h1.411c0.111,0,0.174,0.063,0.174,0.174v4.486
		c0,0.999,0.523,1.602,1.379,1.602c1.173,0,1.855-0.856,1.855-2.394v-3.694c0-0.111,0.063-0.174,0.174-0.174h1.411
		c0.111,0,0.174,0.063,0.174,0.174v7.34c0,0.111-0.063,0.174-0.174,0.174h-0.793c-0.111,0-0.174-0.047-0.19-0.159L50.17,227.969z"/>
	<path fill="#FFFFFF" d="M54.896,221.85c0.095,0.19,0.19,0.19,0.38,0.016c0.603-0.682,1.3-0.951,2.061-0.951
		c0.904,0,1.633,0.444,2.061,1.062c0.206,0.222,0.349,0.175,0.539,0c0.698-0.824,1.411-1.062,2.172-1.062
		c1.776,0,2.791,1.125,2.791,2.997v4.677c0,0.111-0.063,0.174-0.175,0.174h-1.427c-0.111,0-0.174-0.063-0.174-0.174v-4.487
		c0-0.999-0.412-1.601-1.252-1.601c-1.205,0-1.744,0.936-1.744,2.394v3.694c0,0.111-0.063,0.174-0.175,0.174h-1.427
		c-0.111,0-0.174-0.063-0.174-0.174v-4.502c0-0.983-0.444-1.585-1.252-1.585c-1.221,0-1.744,0.936-1.744,2.394v3.694
		c0,0.111-0.063,0.174-0.174,0.174h-1.411c-0.111,0-0.175-0.063-0.175-0.174v-7.34c0-0.111,0.063-0.174,0.175-0.174h0.792
		c0.111,0,0.174,0.047,0.19,0.158L54.896,221.85z"/>
	<path fill="#FFFFFF" d="M71.911,228.73c-0.571,0.143-1.11,0.206-1.617,0.206c-2.394,0-3.742-1.554-3.742-4.011
		c0-2.474,1.363-4.011,3.678-4.011c1.902,0,3.06,0.951,3.06,2.521c0,1.221-0.745,1.918-2.331,2.156l-2.489,0.38
		c0.174,0.84,0.809,1.364,1.807,1.364c0.444,0,0.92-0.048,1.252-0.159l0.698-0.174c0.111-0.032,0.19,0.016,0.222,0.127l0.317,1.189
		c0.032,0.111-0.016,0.19-0.127,0.222L71.911,228.73z M70.689,224.228c0.555-0.095,0.856-0.349,0.856-0.761
		c0-0.634-0.492-0.967-1.348-0.967c-1.046,0-1.76,0.65-1.887,2.108L70.689,224.228z"/>
	<path fill="#FFFFFF" d="M76.335,221.865c0.095,0.19,0.19,0.174,0.365,0.016c0.618-0.698,1.411-0.967,2.188-0.967
		c1.808,0,2.901,1.125,2.901,2.997v4.677c0,0.111-0.063,0.174-0.174,0.174h-1.411c-0.111,0-0.174-0.063-0.174-0.174v-4.487
		c0-0.999-0.523-1.601-1.379-1.601c-1.173,0-1.855,0.856-1.855,2.394v3.694c0,0.111-0.063,0.174-0.174,0.174h-1.411
		c-0.111,0-0.175-0.063-0.175-0.174v-7.34c0-0.111,0.063-0.174,0.175-0.174h0.792c0.111,0,0.174,0.047,0.19,0.158L76.335,221.865z"
		/>
	<path fill="#FFFFFF" d="M87.862,221.073c0.111,0,0.175,0.063,0.175,0.174v1.221c0,0.111-0.063,0.174-0.175,0.174h-1.775v3.853
		c0,0.539,0.238,0.84,0.618,0.84c0.143,0,0.286-0.016,0.412-0.063c0.111-0.047,0.19-0.032,0.238,0.079l0.507,1.078
		c0.048,0.095,0.016,0.174-0.079,0.238c-0.285,0.159-0.698,0.27-1.078,0.27c-1.506,0-2.378-0.904-2.378-2.441v-3.853H83.55
		c-0.111,0-0.174-0.063-0.174-0.174v-1.221c0-0.111,0.063-0.174,0.174-0.174h0.777v-1.823c0-0.095,0.047-0.159,0.143-0.19
		l1.411-0.476c0.127-0.032,0.206,0.016,0.206,0.143v2.347H87.862z"/>
	<path fill="#FFFFFF" d="M91.479,225.353c-1.315-0.333-1.934-1.015-1.934-2.156c0-1.427,1.063-2.283,2.901-2.283
		c0.713,0,1.443,0.111,1.966,0.253l0.698,0.175c0.111,0.032,0.158,0.111,0.127,0.222l-0.333,1.189
		c-0.032,0.111-0.111,0.159-0.222,0.127l-0.698-0.19c-0.428-0.126-1.062-0.19-1.538-0.19c-0.729,0-1.157,0.27-1.157,0.697
		c0,0.365,0.222,0.587,0.713,0.729l1.585,0.412c1.379,0.349,1.998,1.063,1.998,2.204c0,1.49-1.11,2.394-2.98,2.394
		c-0.825,0-1.649-0.111-2.426-0.333l-0.618-0.174c-0.111-0.032-0.159-0.111-0.127-0.222l0.365-1.189
		c0.032-0.095,0.111-0.143,0.206-0.111l0.571,0.159c0.603,0.174,1.442,0.27,2.029,0.27c0.777,0,1.221-0.301,1.221-0.793
		c0-0.38-0.222-0.618-0.745-0.777L91.479,225.353z"/>
	<path fill="#FFFFFF" d="M22.167,247.759c-0.571,0.143-1.11,0.206-1.617,0.206c-2.394,0-3.742-1.554-3.742-4.011
		c0-2.474,1.363-4.011,3.678-4.011c1.902,0,3.06,0.951,3.06,2.521c0,1.221-0.745,1.918-2.331,2.156L18.726,245
		c0.174,0.84,0.809,1.363,1.807,1.363c0.444,0,0.92-0.048,1.252-0.159l0.698-0.174c0.111-0.032,0.19,0.016,0.222,0.127l0.317,1.189
		c0.032,0.111-0.016,0.19-0.127,0.222L22.167,247.759z M20.945,243.256c0.555-0.095,0.856-0.349,0.856-0.761
		c0-0.634-0.492-0.967-1.348-0.967c-1.046,0-1.76,0.65-1.887,2.108L20.945,243.256z"/>
	<path fill="#FFFFFF" d="M30.65,244.049c-0.476,1.221-0.951,2.584-1.221,3.599c-0.032,0.095-0.095,0.143-0.206,0.143h-1.681
		c-0.111,0-0.174-0.047-0.206-0.143c-0.27-1.015-0.745-2.362-1.221-3.599l-1.57-3.741c-0.047-0.127,0.016-0.206,0.143-0.206h1.474
		c0.095,0,0.159,0.047,0.206,0.126l1.126,2.664c0.349,0.936,0.634,1.902,0.761,2.616c0.032,0.175,0.206,0.175,0.254,0
		c0.111-0.713,0.396-1.696,0.761-2.616l1.125-2.664c0.048-0.079,0.111-0.126,0.207-0.126h1.474c0.127,0,0.19,0.079,0.143,0.206
		L30.65,244.049z"/>
	<path fill="#FFFFFF" d="M38.626,247.759c-0.571,0.143-1.11,0.206-1.617,0.206c-2.394,0-3.742-1.554-3.742-4.011
		c0-2.474,1.363-4.011,3.678-4.011c1.902,0,3.06,0.951,3.06,2.521c0,1.221-0.745,1.918-2.331,2.156L35.186,245
		c0.174,0.84,0.809,1.363,1.807,1.363c0.444,0,0.92-0.048,1.252-0.159l0.698-0.174c0.111-0.032,0.19,0.016,0.222,0.127l0.317,1.189
		c0.032,0.111-0.016,0.19-0.127,0.222L38.626,247.759z M37.405,243.256c0.555-0.095,0.856-0.349,0.856-0.761
		c0-0.634-0.492-0.967-1.348-0.967c-1.046,0-1.76,0.65-1.887,2.108L37.405,243.256z"/>
	<path fill="#FFFFFF" d="M46.174,241.354c0,0.111-0.063,0.174-0.174,0.174c-1.728,0.079-2.489,1.284-2.489,4.201v1.887
		c0,0.111-0.063,0.174-0.174,0.174h-1.411c-0.111,0-0.175-0.063-0.175-0.174v-7.34c0-0.111,0.063-0.174,0.175-0.174h0.792
		c0.111,0,0.174,0.047,0.206,0.143l0.254,0.904c0.095,0.174,0.174,0.206,0.317,0.047c0.634-0.824,1.348-1.221,2.505-1.252
		c0.111,0,0.174,0.063,0.174,0.174V241.354z"/>
	<path fill="#FFFFFF" d="M50.821,251.057c-0.032,0.095-0.095,0.143-0.19,0.143h-1.458c-0.127,0-0.19-0.08-0.143-0.206l0.84-1.998
		c0.428-1.126,0.27-2.077-0.301-3.567l-2.109-5.121c-0.047-0.127,0.016-0.206,0.143-0.206h1.474c0.095,0,0.159,0.047,0.206,0.126
		l1.252,2.997c0.27,0.713,0.555,1.712,0.65,2.314c0.032,0.159,0.206,0.159,0.253-0.016c0.111-0.586,0.412-1.617,0.682-2.299
		l1.237-2.997c0.047-0.079,0.111-0.126,0.206-0.126h1.475c0.126,0,0.19,0.079,0.143,0.206L50.821,251.057z"/>
	<path fill="#FFFFFF" d="M61.825,244.382c-1.315-0.333-1.934-1.015-1.934-2.156c0-1.427,1.063-2.283,2.901-2.283
		c0.713,0,1.443,0.111,1.966,0.253l0.698,0.175c0.111,0.032,0.158,0.111,0.127,0.222l-0.333,1.189
		c-0.032,0.111-0.111,0.159-0.222,0.127l-0.698-0.19c-0.428-0.126-1.062-0.19-1.538-0.19c-0.729,0-1.157,0.27-1.157,0.697
		c0,0.365,0.222,0.587,0.713,0.729l1.585,0.412c1.379,0.349,1.998,1.063,1.998,2.204c0,1.49-1.11,2.394-2.98,2.394
		c-0.825,0-1.649-0.111-2.426-0.333l-0.618-0.174c-0.111-0.032-0.159-0.111-0.127-0.222l0.365-1.189
		c0.032-0.095,0.111-0.143,0.206-0.111l0.571,0.159c0.603,0.174,1.442,0.27,2.029,0.27c0.777,0,1.221-0.301,1.221-0.793
		c0-0.38-0.222-0.618-0.745-0.777L61.825,244.382z"/>
	<path fill="#FFFFFF" d="M71.593,240.102c0.111,0,0.174,0.063,0.174,0.174v1.221c0,0.111-0.063,0.174-0.174,0.174h-1.775v3.853
		c0,0.539,0.238,0.84,0.618,0.84c0.143,0,0.286-0.016,0.412-0.063c0.111-0.047,0.19-0.032,0.238,0.079l0.507,1.078
		c0.048,0.095,0.016,0.174-0.079,0.238c-0.285,0.159-0.698,0.27-1.078,0.27c-1.506,0-2.378-0.904-2.378-2.441v-3.853h-0.777
		c-0.111,0-0.174-0.063-0.174-0.174v-1.221c0-0.111,0.063-0.174,0.174-0.174h0.777v-1.823c0-0.095,0.047-0.159,0.143-0.19
		l1.411-0.476c0.126-0.032,0.206,0.016,0.206,0.143v2.347H71.593z"/>
	<path fill="#FFFFFF" d="M78.333,247.759c-0.571,0.143-1.11,0.206-1.617,0.206c-2.394,0-3.742-1.554-3.742-4.011
		c0-2.474,1.363-4.011,3.678-4.011c1.902,0,3.06,0.951,3.06,2.521c0,1.221-0.745,1.918-2.331,2.156L74.892,245
		c0.174,0.84,0.809,1.363,1.807,1.363c0.444,0,0.92-0.048,1.252-0.159l0.698-0.174c0.111-0.032,0.19,0.016,0.222,0.127l0.317,1.189
		c0.032,0.111-0.016,0.19-0.127,0.222L78.333,247.759z M77.111,243.256c0.555-0.095,0.856-0.349,0.856-0.761
		c0-0.634-0.492-0.967-1.348-0.967c-1.046,0-1.76,0.65-1.887,2.108L77.111,243.256z"/>
	<path fill="#FFFFFF" d="M82.789,240.91c0.063,0.174,0.19,0.158,0.301,0.016c0.618-0.698,1.363-0.983,2.219-0.983
		c2.077,0,3.33,1.538,3.33,3.995c0,2.489-1.332,4.027-3.551,4.027c-0.571,0-0.983-0.095-1.443-0.301l-0.428-0.19v3.552
		c0,0.11-0.063,0.174-0.174,0.174h-1.411c-0.111,0-0.175-0.063-0.175-0.174v-10.75c0-0.111,0.063-0.174,0.175-0.174h0.792
		c0.111,0,0.174,0.047,0.19,0.143L82.789,240.91z M83.677,246.094c0.38,0.19,0.824,0.27,1.3,0.27c1.221,0,1.918-0.904,1.918-2.426
		c0-1.506-0.697-2.41-1.871-2.41c-1.189,0-1.823,0.983-1.823,2.362v1.981L83.677,246.094z"/>
	<path fill="#FFFFFF" d="M92.144,244.382c-1.315-0.333-1.934-1.015-1.934-2.156c0-1.427,1.063-2.283,2.901-2.283
		c0.713,0,1.443,0.111,1.966,0.253l0.698,0.175c0.111,0.032,0.158,0.111,0.127,0.222l-0.333,1.189
		c-0.032,0.111-0.111,0.159-0.222,0.127l-0.697-0.19c-0.428-0.126-1.063-0.19-1.538-0.19c-0.729,0-1.157,0.27-1.157,0.697
		c0,0.365,0.222,0.587,0.713,0.729l1.585,0.412c1.379,0.349,1.998,1.063,1.998,2.204c0,1.49-1.11,2.394-2.98,2.394
		c-0.825,0-1.649-0.111-2.426-0.333l-0.618-0.174c-0.111-0.032-0.159-0.111-0.127-0.222l0.365-1.189
		c0.032-0.095,0.111-0.143,0.206-0.111l0.571,0.159c0.603,0.174,1.442,0.27,2.029,0.27c0.777,0,1.221-0.301,1.221-0.793
		c0-0.38-0.222-0.618-0.745-0.777L92.144,244.382z"/>
	<path fill="#FFFFFF" d="M21.262,266.787c-0.476,0.127-0.983,0.207-1.475,0.207c-2.425,0-3.757-1.555-3.757-4.027
		c0-2.457,1.316-3.995,3.805-3.995c0.412,0,0.872,0.048,1.363,0.19l0.682,0.189c0.111,0.032,0.159,0.111,0.127,0.223l-0.365,1.189
		c-0.032,0.095-0.111,0.143-0.206,0.11l-0.539-0.143c-0.396-0.127-0.777-0.175-1.062-0.175c-1.411,0-2.061,0.904-2.061,2.395
		c0,1.537,0.682,2.441,2.029,2.441c0.333,0,0.777-0.063,1.173-0.174l0.523-0.159c0.111-0.032,0.19,0.016,0.222,0.11l0.365,1.189
		c0.032,0.111-0.016,0.19-0.127,0.223L21.262,266.787z"/>
	<path fill="#FFFFFF" d="M30.649,262.967c0,2.473-1.395,4.027-3.646,4.027c-2.267,0-3.662-1.555-3.662-4.027
		c0-2.441,1.395-3.995,3.662-3.995C29.254,258.972,30.649,260.525,30.649,262.967z M25.085,262.967c0,1.521,0.713,2.426,1.918,2.426
		c1.173,0,1.903-0.904,1.903-2.426c0-1.506-0.729-2.41-1.903-2.41C25.798,260.557,25.085,261.461,25.085,262.967z"/>
	<path fill="#FFFFFF" d="M33.695,259.923c0.095,0.19,0.19,0.175,0.365,0.017c0.618-0.698,1.411-0.968,2.188-0.968
		c1.808,0,2.901,1.126,2.901,2.997v4.676c0,0.111-0.063,0.175-0.174,0.175h-1.411c-0.111,0-0.174-0.063-0.174-0.175v-4.486
		c0-0.998-0.523-1.602-1.379-1.602c-1.173,0-1.855,0.856-1.855,2.395v3.693c0,0.111-0.063,0.175-0.174,0.175H32.57
		c-0.111,0-0.175-0.063-0.175-0.175v-7.34c0-0.111,0.063-0.174,0.175-0.174h0.792c0.111,0,0.174,0.047,0.19,0.158L33.695,259.923z"
		/>
	<path fill="#FFFFFF" d="M42.956,263.41c-1.315-0.332-1.934-1.014-1.934-2.156c0-1.426,1.063-2.282,2.901-2.282
		c0.713,0,1.443,0.11,1.966,0.253l0.698,0.176c0.111,0.031,0.158,0.11,0.127,0.221l-0.333,1.189
		c-0.032,0.111-0.111,0.158-0.222,0.127l-0.697-0.19c-0.428-0.126-1.063-0.19-1.538-0.19c-0.729,0-1.157,0.27-1.157,0.697
		c0,0.365,0.222,0.588,0.713,0.73l1.585,0.412c1.379,0.349,1.998,1.063,1.998,2.203c0,1.49-1.11,2.395-2.98,2.395
		c-0.825,0-1.649-0.111-2.426-0.334l-0.618-0.174c-0.111-0.031-0.159-0.111-0.127-0.222l0.365-1.189
		c0.032-0.095,0.111-0.143,0.206-0.11l0.571,0.158c0.603,0.174,1.442,0.27,2.029,0.27c0.777,0,1.221-0.301,1.221-0.793
		c0-0.381-0.222-0.618-0.745-0.777L42.956,263.41z"/>
	<path fill="#FFFFFF" d="M50.948,266.645c0,0.111-0.063,0.175-0.174,0.175h-1.411c-0.111,0-0.174-0.063-0.174-0.175v-5.945h-0.777
		c-0.111,0-0.174-0.063-0.174-0.174v-1.221c0-0.111,0.063-0.174,0.174-0.174h2.362c0.111,0,0.174,0.063,0.174,0.174V266.645z
		 M50.932,256.388c0,0.682-0.38,1.077-1.046,1.077c-0.666,0-1.062-0.396-1.062-1.077c0-0.666,0.396-1.063,1.062-1.063
		C50.551,255.325,50.932,255.722,50.932,256.388z"/>
	<path fill="#FFFFFF" d="M54.833,263.41c-1.315-0.332-1.934-1.014-1.934-2.156c0-1.426,1.063-2.282,2.901-2.282
		c0.713,0,1.443,0.11,1.966,0.253l0.698,0.176c0.111,0.031,0.158,0.11,0.127,0.221l-0.333,1.189
		c-0.032,0.111-0.111,0.158-0.222,0.127l-0.697-0.19c-0.428-0.126-1.063-0.19-1.538-0.19c-0.729,0-1.157,0.27-1.157,0.697
		c0,0.365,0.222,0.588,0.713,0.73l1.585,0.412c1.379,0.349,1.998,1.063,1.998,2.203c0,1.49-1.11,2.395-2.98,2.395
		c-0.825,0-1.649-0.111-2.426-0.334l-0.618-0.174c-0.111-0.031-0.159-0.111-0.127-0.222l0.365-1.189
		c0.032-0.095,0.111-0.143,0.206-0.11l0.571,0.158c0.603,0.174,1.442,0.27,2.029,0.27c0.777,0,1.221-0.301,1.221-0.793
		c0-0.381-0.222-0.618-0.745-0.777L54.833,263.41z"/>
	<path fill="#FFFFFF" d="M64.601,259.131c0.111,0,0.175,0.063,0.175,0.174v1.221c0,0.111-0.063,0.174-0.175,0.174h-1.775v3.854
		c0,0.539,0.238,0.84,0.618,0.84c0.143,0,0.286-0.016,0.412-0.063c0.111-0.048,0.19-0.032,0.238,0.079l0.507,1.078
		c0.048,0.096,0.016,0.174-0.079,0.238c-0.285,0.158-0.698,0.27-1.078,0.27c-1.506,0-2.378-0.904-2.378-2.441v-3.854h-0.777
		c-0.111,0-0.174-0.063-0.174-0.174v-1.221c0-0.111,0.063-0.174,0.174-0.174h0.777v-1.824c0-0.095,0.047-0.158,0.143-0.189
		l1.411-0.477c0.127-0.031,0.206,0.017,0.206,0.143v2.348H64.601z"/>
	<path fill="#FFFFFF" d="M71.34,266.787c-0.571,0.143-1.11,0.207-1.617,0.207c-2.394,0-3.742-1.555-3.742-4.012
		c0-2.473,1.363-4.011,3.678-4.011c1.902,0,3.06,0.951,3.06,2.521c0,1.221-0.745,1.918-2.331,2.156l-2.489,0.381
		c0.174,0.84,0.809,1.363,1.807,1.363c0.444,0,0.919-0.048,1.252-0.158l0.698-0.175c0.111-0.032,0.19,0.016,0.222,0.127l0.317,1.188
		c0.032,0.111-0.016,0.191-0.127,0.223L71.34,266.787z M70.119,262.285c0.555-0.096,0.856-0.349,0.856-0.762
		c0-0.633-0.492-0.967-1.348-0.967c-1.046,0-1.76,0.65-1.887,2.109L70.119,262.285z"/>
	<path fill="#FFFFFF" d="M75.765,259.923c0.095,0.19,0.19,0.175,0.365,0.017c0.618-0.698,1.411-0.968,2.188-0.968
		c1.808,0,2.901,1.126,2.901,2.997v4.676c0,0.111-0.063,0.175-0.174,0.175h-1.411c-0.111,0-0.174-0.063-0.174-0.175v-4.486
		c0-0.998-0.523-1.602-1.379-1.602c-1.173,0-1.855,0.856-1.855,2.395v3.693c0,0.111-0.063,0.175-0.174,0.175h-1.411
		c-0.111,0-0.175-0.063-0.175-0.175v-7.34c0-0.111,0.063-0.174,0.175-0.174h0.792c0.111,0,0.174,0.047,0.19,0.158L75.765,259.923z"
		/>
	<path fill="#FFFFFF" d="M87.292,259.131c0.111,0,0.175,0.063,0.175,0.174v1.221c0,0.111-0.063,0.174-0.175,0.174h-1.775v3.854
		c0,0.539,0.238,0.84,0.618,0.84c0.143,0,0.286-0.016,0.412-0.063c0.111-0.048,0.19-0.032,0.238,0.079l0.507,1.078
		c0.048,0.096,0.016,0.174-0.079,0.238c-0.285,0.158-0.698,0.27-1.078,0.27c-1.506,0-2.378-0.904-2.378-2.441v-3.854H82.98
		c-0.111,0-0.174-0.063-0.174-0.174v-1.221c0-0.111,0.063-0.174,0.174-0.174h0.777v-1.824c0-0.095,0.047-0.158,0.143-0.189
		l1.411-0.477c0.127-0.031,0.206,0.017,0.206,0.143v2.348H87.292z"/>
	<path fill="#FFFFFF" d="M90.987,264.965c0,0.27,0.111,0.428,0.317,0.428c0.047,0,0.079,0,0.111,0
		c0.111-0.016,0.174-0.016,0.222,0.096l0.476,1.125c0.047,0.111,0.016,0.19-0.08,0.238c-0.222,0.095-0.491,0.143-0.729,0.143
		c-1.3,0-2.077-0.746-2.077-2.029v-9.338c0-0.111,0.063-0.175,0.175-0.175h1.411c0.111,0,0.174,0.063,0.174,0.175V264.965z"/>
	<path fill="#FFFFFF" d="M96.062,270.086c-0.032,0.094-0.095,0.143-0.19,0.143h-1.458c-0.127,0-0.19-0.08-0.143-0.207l0.84-1.997
		c0.428-1.126,0.27-2.077-0.301-3.567l-2.109-5.121c-0.047-0.127,0.016-0.205,0.143-0.205h1.474c0.095,0,0.159,0.047,0.206,0.126
		l1.252,2.997c0.27,0.713,0.555,1.712,0.65,2.314c0.032,0.158,0.206,0.158,0.253-0.016c0.111-0.587,0.412-1.617,0.682-2.299
		l1.237-2.997c0.047-0.079,0.111-0.126,0.206-0.126h1.475c0.126,0,0.19,0.078,0.143,0.205L96.062,270.086z"/>
</g>
<g>
	<path fill="#FFFFFF" d="M124.357,391.117c0,0.11-0.063,0.174-0.174,0.174h-1.902c-0.095,0-0.159-0.047-0.206-0.127
		c-0.222-0.539-0.539-1.142-0.824-1.633l-3.393-5.597c-0.206-0.364-0.396-0.729-0.555-1.062c-0.095-0.175-0.254-0.111-0.222,0.063
		c0.095,0.713,0.143,1.348,0.143,2.203v5.978c0,0.11-0.063,0.174-0.175,0.174h-1.458c-0.111,0-0.174-0.063-0.174-0.174v-10.733
		c0-0.111,0.063-0.175,0.174-0.175h1.903c0.095,0,0.158,0.048,0.206,0.127c0.238,0.539,0.555,1.142,0.84,1.633l3.393,5.597
		c0.206,0.381,0.396,0.745,0.555,1.063c0.08,0.206,0.238,0.127,0.206-0.063c-0.111-0.697-0.126-1.332-0.126-2.172v-6.009
		c0-0.111,0.063-0.175,0.174-0.175h1.442c0.111,0,0.174,0.063,0.174,0.175V391.117z"/>
	<path fill="#FFFFFF" d="M133.571,387.438c0,2.474-1.395,4.027-3.646,4.027c-2.267,0-3.662-1.554-3.662-4.027
		c0-2.441,1.395-3.995,3.662-3.995C132.176,383.443,133.571,384.997,133.571,387.438z M128.006,387.438
		c0,1.522,0.713,2.426,1.918,2.426c1.173,0,1.903-0.903,1.903-2.426c0-1.506-0.729-2.409-1.903-2.409
		C128.72,385.029,128.006,385.933,128.006,387.438z"/>
	<path fill="#FFFFFF" d="M143.466,391.26c-0.476,0.127-0.983,0.206-1.475,0.206c-2.425,0-3.757-1.554-3.757-4.027
		c0-2.457,1.316-3.995,3.805-3.995c0.412,0,0.872,0.048,1.363,0.19l0.682,0.19c0.111,0.031,0.159,0.11,0.127,0.222l-0.365,1.189
		c-0.032,0.095-0.111,0.143-0.206,0.11l-0.539-0.143c-0.396-0.127-0.777-0.174-1.062-0.174c-1.411,0-2.061,0.903-2.061,2.394
		c0,1.538,0.682,2.441,2.029,2.441c0.333,0,0.777-0.063,1.173-0.174l0.523-0.159c0.111-0.031,0.19,0.016,0.222,0.111l0.365,1.188
		c0.032,0.111-0.016,0.19-0.127,0.223L143.466,391.26z"/>
	<path fill="#FFFFFF" d="M147.891,382.413c0,0.761-0.079,1.269-0.253,1.808c-0.063,0.174,0.032,0.285,0.222,0.143
		c0.539-0.587,1.221-0.92,2.125-0.92c1.808,0,2.901,1.126,2.901,2.997v4.677c0,0.11-0.063,0.174-0.174,0.174H151.3
		c-0.111,0-0.174-0.063-0.174-0.174v-4.487c0-1.015-0.523-1.601-1.379-1.601c-1.284,0-1.839,1.015-1.855,2.394v3.694
		c0,0.11-0.063,0.174-0.174,0.174h-1.411c-0.111,0-0.175-0.063-0.175-0.174v-11.019c0-0.111,0.063-0.175,0.175-0.175h1.411
		c0.111,0,0.174,0.063,0.174,0.175V382.413z"/>
	<path fill="#FFFFFF" d="M155.899,383.682c0.539-0.159,1.078-0.238,1.728-0.238c2.14,0,3.456,1.11,3.456,3.028v4.646
		c0,0.11-0.063,0.174-0.174,0.174h-0.792c-0.111,0-0.174-0.047-0.206-0.143l-0.127-0.491c-0.095-0.222-0.19-0.222-0.396-0.032
		c-0.491,0.539-1.205,0.841-2.172,0.841c-1.76,0-2.743-0.904-2.743-2.395s1.015-2.441,2.885-2.441h1.982v-0.095
		c0-0.967-0.619-1.49-1.792-1.49c-0.46,0-0.856,0.048-1.237,0.158l-0.571,0.175c-0.111,0.031-0.19-0.016-0.222-0.127l-0.349-1.173
		c-0.032-0.111,0.016-0.19,0.127-0.223L155.899,383.682z M157.357,388.01c-0.777,0-1.142,0.364-1.142,0.903
		c0,0.618,0.428,0.999,1.189,0.999c1.252,0,1.934-0.618,1.934-1.792v-0.11H157.357z"/>
	<path fill="#FFFFFF" d="M164.398,384.395c0.095,0.19,0.19,0.175,0.365,0.017c0.618-0.698,1.411-0.968,2.188-0.968
		c1.808,0,2.901,1.126,2.901,2.997v4.677c0,0.11-0.063,0.174-0.174,0.174h-1.411c-0.111,0-0.174-0.063-0.174-0.174v-4.487
		c0-0.998-0.523-1.601-1.379-1.601c-1.173,0-1.855,0.855-1.855,2.394v3.694c0,0.11-0.063,0.174-0.174,0.174h-1.411
		c-0.111,0-0.175-0.063-0.175-0.174v-7.341c0-0.11,0.063-0.174,0.175-0.174h0.792c0.111,0,0.174,0.047,0.19,0.158L164.398,384.395z"
		/>
	<path fill="#FFFFFF" d="M173.469,393.099c0.333,0.095,0.904,0.175,1.363,0.175c1.094,0,2.093-0.429,2.378-1.697
		c0.048-0.697,0.063-0.649,0.08-0.982c0-0.111-0.08-0.19-0.222-0.048c-0.523,0.571-1.284,0.92-2.188,0.92
		c-2.093,0-3.361-1.554-3.361-3.979c0-2.553,1.379-4.043,3.694-4.043c0.65,0,1.332,0.111,1.95,0.365l1.411,0.586
		c0.095,0.032,0.143,0.096,0.143,0.19v6.643c0,2.347-1.379,3.631-3.805,3.631c-0.586,0-1.284-0.079-1.728-0.206l-0.777-0.222
		c-0.111-0.032-0.158-0.111-0.126-0.223l0.364-1.173c0.032-0.095,0.111-0.143,0.207-0.111L173.469,393.099z M176.481,385.299
		c-0.349-0.175-0.825-0.27-1.284-0.27c-1.221,0-1.934,0.888-1.934,2.409c0,1.443,0.65,2.426,1.823,2.426
		c1.205,0,1.871-0.872,1.871-2.394v-1.95L176.481,385.299z"/>
	<path fill="#FFFFFF" d="M185.726,391.26c-0.571,0.143-1.11,0.206-1.617,0.206c-2.394,0-3.742-1.554-3.742-4.011
		c0-2.474,1.363-4.012,3.678-4.012c1.902,0,3.06,0.951,3.06,2.521c0,1.222-0.745,1.919-2.331,2.156l-2.489,0.381
		c0.174,0.84,0.809,1.363,1.807,1.363c0.444,0,0.92-0.048,1.252-0.158l0.698-0.175c0.111-0.031,0.19,0.016,0.222,0.127l0.317,1.189
		c0.032,0.11-0.016,0.189-0.127,0.222L185.726,391.26z M184.505,386.757c0.555-0.095,0.856-0.349,0.856-0.761
		c0-0.634-0.492-0.967-1.348-0.967c-1.046,0-1.76,0.649-1.887,2.108L184.505,386.757z"/>
	<path fill="#FFFFFF" d="M194.463,391.117c0,0.11-0.063,0.174-0.174,0.174h-1.411c-0.111,0-0.174-0.063-0.174-0.174v-5.945h-0.777
		c-0.111,0-0.174-0.063-0.174-0.175v-1.221c0-0.11,0.063-0.174,0.174-0.174h2.362c0.111,0,0.174,0.063,0.174,0.174V391.117z
		 M194.447,380.859c0,0.682-0.38,1.078-1.046,1.078c-0.666,0-1.062-0.396-1.062-1.078c0-0.666,0.396-1.063,1.062-1.063
		C194.067,379.797,194.447,380.193,194.447,380.859z"/>
	<path fill="#FFFFFF" d="M197.889,384.395c0.095,0.19,0.19,0.175,0.365,0.017c0.618-0.698,1.411-0.968,2.188-0.968
		c1.808,0,2.901,1.126,2.901,2.997v4.677c0,0.11-0.063,0.174-0.174,0.174h-1.411c-0.111,0-0.174-0.063-0.174-0.174v-4.487
		c0-0.998-0.523-1.601-1.379-1.601c-1.173,0-1.855,0.855-1.855,2.394v3.694c0,0.11-0.063,0.174-0.174,0.174h-1.411
		c-0.111,0-0.175-0.063-0.175-0.174v-7.341c0-0.11,0.063-0.174,0.175-0.174h0.792c0.111,0,0.174,0.047,0.19,0.158L197.889,384.395z"
		/>
	<path fill="#FFFFFF" d="M136.663,410.288c-0.571,0.143-1.11,0.206-1.617,0.206c-2.394,0-3.742-1.554-3.742-4.012
		c0-2.473,1.363-4.011,3.678-4.011c1.902,0,3.06,0.951,3.06,2.521c0,1.221-0.745,1.919-2.331,2.156l-2.489,0.381
		c0.174,0.84,0.809,1.363,1.807,1.363c0.444,0,0.919-0.048,1.252-0.158l0.698-0.175c0.111-0.031,0.19,0.016,0.222,0.127l0.317,1.188
		c0.032,0.111-0.016,0.19-0.127,0.223L136.663,410.288z M135.442,405.785c0.555-0.095,0.856-0.349,0.856-0.761
		c0-0.635-0.492-0.968-1.348-0.968c-1.046,0-1.76,0.65-1.887,2.109L135.442,405.785z"/>
	<path fill="#FFFFFF" d="M144.56,405.563c-0.238,0.38-0.492,0.666-0.745,0.792c-0.08,0.032-0.08,0.096-0.016,0.127
		c0.301,0.19,0.523,0.412,0.761,0.841l1.76,2.79c0.063,0.111,0.016,0.206-0.127,0.206h-1.569c-0.095,0-0.159-0.031-0.222-0.111
		l-1.475-2.394c-0.095-0.127-0.158-0.127-0.253,0l-1.475,2.394c-0.063,0.08-0.126,0.111-0.222,0.111h-1.57
		c-0.143,0-0.19-0.095-0.126-0.206l1.76-2.79c0.253-0.412,0.476-0.666,0.761-0.841c0.032-0.016,0.047-0.031,0.047-0.047
		c0.016-0.08-0.095-0.096-0.143-0.144c-0.222-0.158-0.476-0.428-0.666-0.729l-1.712-2.728c-0.063-0.11-0.016-0.206,0.127-0.206
		h1.554c0.095,0,0.158,0.032,0.222,0.111l1.443,2.362c0.079,0.127,0.174,0.127,0.253,0l1.443-2.362
		c0.063-0.079,0.127-0.111,0.222-0.111h1.554c0.143,0,0.19,0.096,0.126,0.206L144.56,405.563z"/>
	<path fill="#FFFFFF" d="M150.428,410.145c0,0.111-0.063,0.175-0.174,0.175h-1.411c-0.111,0-0.174-0.063-0.174-0.175V404.2h-0.777
		c-0.111,0-0.174-0.063-0.174-0.175v-1.221c0-0.111,0.063-0.175,0.174-0.175h2.362c0.111,0,0.174,0.063,0.174,0.175V410.145z
		 M150.412,399.888c0,0.682-0.38,1.078-1.046,1.078c-0.666,0-1.062-0.396-1.062-1.078c0-0.666,0.396-1.063,1.062-1.063
		C150.031,398.825,150.412,399.222,150.412,399.888z"/>
	<path fill="#FFFFFF" d="M154.313,406.911c-1.315-0.333-1.934-1.015-1.934-2.156c0-1.427,1.063-2.283,2.901-2.283
		c0.713,0,1.443,0.111,1.966,0.254l0.698,0.174c0.111,0.032,0.158,0.111,0.127,0.223l-0.333,1.188
		c-0.032,0.111-0.111,0.159-0.222,0.127l-0.698-0.19c-0.428-0.127-1.062-0.19-1.538-0.19c-0.729,0-1.157,0.27-1.157,0.698
		c0,0.364,0.222,0.586,0.713,0.729l1.585,0.412c1.379,0.349,1.998,1.062,1.998,2.203c0,1.49-1.11,2.395-2.98,2.395
		c-0.825,0-1.649-0.111-2.426-0.333l-0.618-0.175c-0.111-0.031-0.159-0.111-0.127-0.222l0.365-1.189
		c0.032-0.095,0.111-0.143,0.206-0.11l0.571,0.158c0.603,0.174,1.442,0.27,2.029,0.27c0.777,0,1.221-0.302,1.221-0.793
		c0-0.38-0.222-0.618-0.745-0.776L154.313,406.911z"/>
	<path fill="#FFFFFF" d="M162.305,410.145c0,0.111-0.063,0.175-0.174,0.175h-1.411c-0.111,0-0.174-0.063-0.174-0.175V404.2h-0.777
		c-0.111,0-0.174-0.063-0.174-0.175v-1.221c0-0.111,0.063-0.175,0.174-0.175h2.362c0.111,0,0.174,0.063,0.174,0.175V410.145z
		 M162.289,399.888c0,0.682-0.38,1.078-1.046,1.078c-0.666,0-1.062-0.396-1.062-1.078c0-0.666,0.396-1.063,1.062-1.063
		C161.908,398.825,162.289,399.222,162.289,399.888z"/>
	<path fill="#FFFFFF" d="M172.309,402.63c0.111,0,0.175,0.063,0.175,0.175v7.34c0,0.111-0.063,0.175-0.175,0.175h-1.411
		c-0.111,0-0.175-0.063-0.175-0.175V404.2h-3.979v3.852c0,0.539,0.238,0.841,0.618,0.841c0.143,0,0.286-0.016,0.412-0.063
		c0.111-0.048,0.19-0.032,0.238,0.079l0.507,1.078c0.048,0.095,0.016,0.175-0.079,0.238c-0.285,0.158-0.698,0.27-1.078,0.27
		c-1.506,0-2.378-0.904-2.378-2.442V404.2h-0.777c-0.111,0-0.174-0.063-0.174-0.175v-1.221c0-0.111,0.063-0.175,0.174-0.175h0.777
		v-1.823c0-0.095,0.047-0.158,0.143-0.189l1.411-0.476c0.126-0.032,0.206,0.016,0.206,0.143v2.346H172.309z M170.359,399.888
		c0-0.666,0.396-1.063,1.062-1.063s1.046,0.396,1.046,1.063c0,0.682-0.38,1.078-1.046,1.078S170.359,400.569,170.359,399.888z"/>
	<path fill="#FFFFFF" d="M175.911,403.423c0.095,0.19,0.19,0.175,0.365,0.016c0.618-0.697,1.411-0.967,2.188-0.967
		c1.808,0,2.901,1.126,2.901,2.996v4.677c0,0.111-0.063,0.175-0.174,0.175h-1.411c-0.111,0-0.174-0.063-0.174-0.175v-4.486
		c0-0.999-0.523-1.602-1.379-1.602c-1.173,0-1.855,0.856-1.855,2.395v3.693c0,0.111-0.063,0.175-0.174,0.175h-1.411
		c-0.111,0-0.175-0.063-0.175-0.175v-7.34c0-0.111,0.063-0.175,0.175-0.175h0.792c0.111,0,0.174,0.048,0.19,0.159L175.911,403.423z"
		/>
	<path fill="#FFFFFF" d="M184.981,412.127c0.333,0.095,0.904,0.174,1.363,0.174c1.094,0,2.093-0.428,2.378-1.696
		c0.048-0.697,0.063-0.649,0.08-0.982c0-0.111-0.08-0.19-0.222-0.048c-0.523,0.57-1.284,0.92-2.188,0.92
		c-2.093,0-3.361-1.554-3.361-3.979c0-2.553,1.379-4.043,3.694-4.043c0.65,0,1.332,0.111,1.95,0.364l1.411,0.587
		c0.095,0.032,0.143,0.095,0.143,0.19v6.643c0,2.347-1.379,3.631-3.805,3.631c-0.586,0-1.284-0.079-1.728-0.206l-0.777-0.223
		c-0.111-0.031-0.158-0.11-0.126-0.222l0.364-1.173c0.032-0.096,0.111-0.143,0.207-0.111L184.981,412.127z M187.993,404.326
		c-0.349-0.174-0.824-0.27-1.284-0.27c-1.221,0-1.934,0.889-1.934,2.41c0,1.442,0.65,2.426,1.823,2.426
		c1.205,0,1.871-0.872,1.871-2.394v-1.95L187.993,404.326z"/>
	<path fill="#FFFFFF" d="M123.74,429.174c0,0.111-0.063,0.175-0.174,0.175h-1.411c-0.111,0-0.174-0.063-0.174-0.175v-5.944h-0.777
		c-0.111,0-0.174-0.063-0.174-0.175v-1.221c0-0.111,0.063-0.175,0.174-0.175h2.362c0.111,0,0.174,0.063,0.174,0.175V429.174z
		 M123.724,418.917c0,0.682-0.38,1.078-1.046,1.078c-0.666,0-1.062-0.396-1.062-1.078c0-0.666,0.396-1.063,1.062-1.063
		C123.344,417.854,123.724,418.251,123.724,418.917z"/>
	<path fill="#FFFFFF" d="M127.166,422.452c0.095,0.19,0.19,0.175,0.365,0.016c0.618-0.697,1.411-0.967,2.188-0.967
		c1.808,0,2.901,1.126,2.901,2.996v4.677c0,0.111-0.063,0.175-0.174,0.175h-1.411c-0.111,0-0.174-0.063-0.174-0.175v-4.486
		c0-0.999-0.523-1.602-1.379-1.602c-1.173,0-1.855,0.856-1.855,2.395v3.693c0,0.111-0.063,0.175-0.174,0.175h-1.411
		c-0.111,0-0.175-0.063-0.175-0.175v-7.34c0-0.111,0.063-0.175,0.175-0.175h0.792c0.111,0,0.174,0.048,0.19,0.159L127.166,422.452z"
		/>
	<path fill="#FFFFFF" d="M135.158,420.629c0-1.76,1.03-2.822,2.758-2.822c0.349,0,0.619,0.048,1.046,0.19l0.286,0.096
		c0.095,0.047,0.143,0.126,0.111,0.222l-0.38,1.173c-0.032,0.096-0.111,0.143-0.206,0.111l-0.254-0.079
		c-0.222-0.079-0.365-0.111-0.603-0.111c-0.618,0-0.999,0.46-0.999,1.221v1.03h1.775c0.111,0,0.174,0.063,0.174,0.175v1.221
		c0,0.111-0.063,0.175-0.174,0.175h-1.775v5.944c0,0.111-0.063,0.175-0.174,0.175h-1.411c-0.111,0-0.174-0.063-0.174-0.175v-5.944
		h-0.777c-0.111,0-0.174-0.063-0.174-0.175v-1.221c0-0.111,0.063-0.175,0.174-0.175h0.777V420.629z"/>
	<path fill="#FFFFFF" d="M144.972,422.912c0,0.11-0.063,0.174-0.174,0.174c-1.728,0.08-2.489,1.284-2.489,4.202v1.886
		c0,0.111-0.063,0.175-0.174,0.175h-1.411c-0.111,0-0.175-0.063-0.175-0.175v-7.34c0-0.111,0.063-0.175,0.175-0.175h0.792
		c0.111,0,0.174,0.048,0.206,0.143l0.254,0.904c0.095,0.174,0.174,0.206,0.317,0.048c0.634-0.825,1.348-1.222,2.505-1.253
		c0.111,0,0.174,0.063,0.174,0.175V422.912z"/>
	<path fill="#FFFFFF" d="M148.478,425.94c-1.315-0.333-1.934-1.015-1.934-2.156c0-1.427,1.063-2.283,2.901-2.283
		c0.713,0,1.443,0.111,1.966,0.254l0.698,0.174c0.111,0.032,0.158,0.111,0.127,0.223l-0.333,1.188
		c-0.032,0.111-0.111,0.159-0.222,0.127l-0.698-0.19c-0.428-0.127-1.062-0.19-1.538-0.19c-0.729,0-1.157,0.27-1.157,0.698
		c0,0.364,0.222,0.586,0.713,0.729l1.585,0.412c1.379,0.349,1.998,1.062,1.998,2.203c0,1.49-1.11,2.395-2.98,2.395
		c-0.825,0-1.649-0.111-2.426-0.333l-0.618-0.175c-0.111-0.031-0.159-0.111-0.127-0.222l0.365-1.189
		c0.032-0.095,0.111-0.143,0.206-0.11l0.571,0.158c0.603,0.174,1.442,0.27,2.029,0.27c0.777,0,1.221-0.302,1.221-0.793
		c0-0.38-0.222-0.618-0.745-0.776L148.478,425.94z"/>
	<path fill="#FFFFFF" d="M158.689,422.912c0,0.11-0.063,0.174-0.174,0.174c-1.728,0.08-2.489,1.284-2.489,4.202v1.886
		c0,0.111-0.063,0.175-0.174,0.175h-1.411c-0.111,0-0.175-0.063-0.175-0.175v-7.34c0-0.111,0.063-0.175,0.175-0.175h0.792
		c0.111,0,0.174,0.048,0.206,0.143l0.254,0.904c0.095,0.174,0.174,0.206,0.317,0.048c0.634-0.825,1.348-1.222,2.505-1.253
		c0.111,0,0.174,0.063,0.174,0.175V422.912z"/>
	<path fill="#FFFFFF" d="M165.888,428.556c-0.095-0.19-0.19-0.174-0.364-0.016c-0.619,0.697-1.411,0.967-2.188,0.967
		c-1.808,0-2.901-1.125-2.901-2.996v-4.677c0-0.111,0.063-0.175,0.174-0.175h1.411c0.111,0,0.174,0.063,0.174,0.175v4.486
		c0,0.999,0.523,1.602,1.379,1.602c1.173,0,1.855-0.856,1.855-2.394v-3.694c0-0.111,0.063-0.175,0.174-0.175h1.411
		c0.111,0,0.174,0.063,0.174,0.175v7.34c0,0.111-0.063,0.175-0.174,0.175h-0.793c-0.111,0-0.174-0.048-0.19-0.158L165.888,428.556z"
		/>
	<path fill="#FFFFFF" d="M174.166,429.317c-0.476,0.126-0.983,0.206-1.475,0.206c-2.425,0-3.757-1.554-3.757-4.027
		c0-2.457,1.316-3.995,3.805-3.995c0.412,0,0.872,0.048,1.363,0.19l0.682,0.19c0.111,0.031,0.159,0.11,0.127,0.222l-0.365,1.188
		c-0.032,0.096-0.111,0.144-0.206,0.111l-0.539-0.143c-0.396-0.127-0.777-0.175-1.062-0.175c-1.411,0-2.061,0.904-2.061,2.395
		c0,1.538,0.682,2.441,2.029,2.441c0.333,0,0.777-0.063,1.173-0.175l0.523-0.158c0.111-0.031,0.19,0.016,0.222,0.111l0.365,1.188
		c0.032,0.111-0.016,0.19-0.127,0.222L174.166,429.317z"/>
	<path fill="#FFFFFF" d="M180.889,421.659c0.111,0,0.174,0.063,0.174,0.175v1.221c0,0.111-0.063,0.175-0.174,0.175h-1.775v3.852
		c0,0.539,0.238,0.841,0.618,0.841c0.143,0,0.286-0.016,0.412-0.063c0.111-0.048,0.19-0.032,0.238,0.079l0.507,1.078
		c0.048,0.095,0.016,0.175-0.079,0.238c-0.285,0.158-0.698,0.27-1.078,0.27c-1.506,0-2.378-0.904-2.378-2.442v-3.852h-0.777
		c-0.111,0-0.174-0.063-0.174-0.175v-1.221c0-0.111,0.063-0.175,0.174-0.175h0.777v-1.823c0-0.095,0.047-0.158,0.143-0.189
		l1.411-0.476c0.126-0.032,0.206,0.016,0.206,0.143v2.346H180.889z"/>
	<path fill="#FFFFFF" d="M188.199,428.556c-0.095-0.19-0.19-0.174-0.364-0.016c-0.619,0.697-1.411,0.967-2.188,0.967
		c-1.808,0-2.901-1.125-2.901-2.996v-4.677c0-0.111,0.063-0.175,0.174-0.175h1.411c0.111,0,0.174,0.063,0.174,0.175v4.486
		c0,0.999,0.523,1.602,1.379,1.602c1.173,0,1.855-0.856,1.855-2.394v-3.694c0-0.111,0.063-0.175,0.174-0.175h1.411
		c0.111,0,0.174,0.063,0.174,0.175v7.34c0,0.111-0.063,0.175-0.174,0.175h-0.793c-0.111,0-0.174-0.048-0.19-0.158L188.199,428.556z"
		/>
	<path fill="#FFFFFF" d="M196.048,422.912c0,0.11-0.063,0.174-0.174,0.174c-1.728,0.08-2.489,1.284-2.489,4.202v1.886
		c0,0.111-0.063,0.175-0.174,0.175H191.8c-0.111,0-0.175-0.063-0.175-0.175v-7.34c0-0.111,0.063-0.175,0.175-0.175h0.792
		c0.111,0,0.174,0.048,0.206,0.143l0.254,0.904c0.095,0.174,0.174,0.206,0.317,0.048c0.634-0.825,1.348-1.222,2.505-1.253
		c0.111,0,0.174,0.063,0.174,0.175V422.912z"/>
	<path fill="#FFFFFF" d="M202.693,429.317c-0.571,0.143-1.11,0.206-1.617,0.206c-2.394,0-3.742-1.554-3.742-4.012
		c0-2.473,1.363-4.011,3.678-4.011c1.902,0,3.06,0.951,3.06,2.521c0,1.221-0.745,1.919-2.331,2.156l-2.489,0.381
		c0.174,0.84,0.809,1.363,1.807,1.363c0.444,0,0.92-0.048,1.252-0.158l0.698-0.175c0.111-0.031,0.19,0.016,0.222,0.127l0.317,1.188
		c0.032,0.111-0.016,0.19-0.127,0.223L202.693,429.317z M201.472,424.814c0.555-0.095,0.856-0.349,0.856-0.761
		c0-0.635-0.492-0.968-1.348-0.968c-1.046,0-1.76,0.65-1.887,2.109L201.472,424.814z"/>
</g>
<g>
	<path fill="#FFFFFF" d="M307.006,393.129c0,2.934-1.569,4.631-4.265,4.631c-2.694,0-4.265-1.697-4.265-4.631v-6.451
		c0-0.111,0.063-0.176,0.175-0.176h1.442c0.111,0,0.174,0.064,0.174,0.176v6.451c0,1.903,0.904,2.98,2.474,2.98
		c1.554,0,2.458-1.077,2.458-2.98v-6.451c0-0.111,0.063-0.176,0.174-0.176h1.459c0.111,0,0.174,0.064,0.174,0.176V393.129z"/>
	<path fill="#FFFFFF" d="M310.893,394.176c-1.315-0.333-1.934-1.015-1.934-2.156c0-1.427,1.063-2.283,2.9-2.283
		c0.714,0,1.443,0.111,1.967,0.254l0.697,0.175c0.111,0.032,0.158,0.11,0.127,0.222l-0.333,1.189
		c-0.032,0.111-0.111,0.158-0.222,0.127l-0.698-0.191c-0.428-0.126-1.062-0.189-1.538-0.189c-0.729,0-1.156,0.27-1.156,0.697
		c0,0.365,0.221,0.587,0.713,0.729l1.586,0.412c1.379,0.349,1.997,1.063,1.997,2.204c0,1.49-1.11,2.395-2.98,2.395
		c-0.825,0-1.649-0.111-2.426-0.334l-0.618-0.174c-0.111-0.031-0.158-0.111-0.127-0.223l0.365-1.189
		c0.031-0.094,0.11-0.143,0.205-0.11l0.571,0.159c0.603,0.174,1.442,0.27,2.029,0.27c0.776,0,1.221-0.302,1.221-0.793
		c0-0.381-0.222-0.619-0.745-0.777L310.893,394.176z"/>
	<path fill="#FFFFFF" d="M321.659,397.553c-0.571,0.143-1.11,0.207-1.617,0.207c-2.394,0-3.741-1.555-3.741-4.012
		c0-2.474,1.363-4.012,3.678-4.012c1.902,0,3.06,0.951,3.06,2.521c0,1.221-0.745,1.918-2.331,2.156l-2.488,0.381
		c0.174,0.84,0.809,1.363,1.807,1.363c0.444,0,0.92-0.049,1.253-0.159l0.698-0.175c0.11-0.031,0.189,0.016,0.222,0.127l0.317,1.189
		c0.031,0.111-0.017,0.189-0.127,0.223L321.659,397.553z M320.438,393.051c0.555-0.096,0.856-0.35,0.856-0.762
		c0-0.634-0.492-0.967-1.348-0.967c-1.047,0-1.76,0.65-1.887,2.108L320.438,393.051z"/>
	<path fill="#FFFFFF" d="M326.543,394.176c-1.314-0.333-1.934-1.015-1.934-2.156c0-1.427,1.063-2.283,2.901-2.283
		c0.714,0,1.442,0.111,1.966,0.254l0.697,0.175c0.111,0.032,0.158,0.11,0.127,0.222l-0.332,1.189
		c-0.032,0.111-0.111,0.158-0.223,0.127l-0.697-0.191c-0.428-0.126-1.063-0.189-1.538-0.189c-0.729,0-1.157,0.27-1.157,0.697
		c0,0.365,0.222,0.587,0.713,0.729l1.586,0.412c1.379,0.349,1.998,1.063,1.998,2.204c0,1.49-1.11,2.395-2.98,2.395
		c-0.825,0-1.649-0.111-2.426-0.334l-0.619-0.174c-0.111-0.031-0.158-0.111-0.127-0.223l0.365-1.189
		c0.031-0.094,0.111-0.143,0.206-0.11l0.571,0.159c0.602,0.174,1.441,0.27,2.029,0.27c0.776,0,1.221-0.302,1.221-0.793
		c0-0.381-0.223-0.619-0.746-0.777L326.543,394.176z"/>
	<path fill="#FFFFFF" d="M338.452,400.85c-0.032,0.096-0.095,0.143-0.19,0.143h-1.459c-0.127,0-0.189-0.078-0.143-0.205l0.841-1.998
		c0.428-1.125,0.27-2.076-0.302-3.566l-2.108-5.121c-0.048-0.127,0.017-0.206,0.144-0.206h1.474c0.095,0,0.159,0.048,0.206,0.126
		l1.252,2.997c0.27,0.714,0.556,1.712,0.65,2.314c0.032,0.159,0.207,0.159,0.254-0.016c0.111-0.587,0.412-1.617,0.682-2.299
		l1.236-2.997c0.048-0.078,0.111-0.126,0.207-0.126h1.475c0.126,0,0.189,0.079,0.143,0.206L338.452,400.85z"/>
	<path fill="#FFFFFF" d="M351.168,393.732c0,2.473-1.395,4.027-3.646,4.027c-2.267,0-3.662-1.555-3.662-4.027
		c0-2.441,1.396-3.996,3.662-3.996C349.773,389.736,351.168,391.291,351.168,393.732z M345.604,393.732
		c0,1.521,0.714,2.426,1.918,2.426c1.174,0,1.903-0.904,1.903-2.426c0-1.506-0.729-2.41-1.903-2.41
		C346.317,391.322,345.604,392.227,345.604,393.732z"/>
	<path fill="#FFFFFF" d="M358.289,396.792c-0.096-0.19-0.19-0.175-0.365-0.017c-0.618,0.697-1.41,0.967-2.188,0.967
		c-1.808,0-2.901-1.125-2.901-2.996v-4.676c0-0.111,0.063-0.175,0.175-0.175h1.41c0.111,0,0.175,0.063,0.175,0.175v4.486
		c0,0.998,0.523,1.602,1.38,1.602c1.173,0,1.854-0.857,1.854-2.395v-3.693c0-0.111,0.063-0.175,0.175-0.175h1.41
		c0.111,0,0.175,0.063,0.175,0.175v7.34c0,0.111-0.063,0.174-0.175,0.174h-0.793c-0.11,0-0.174-0.047-0.189-0.158L358.289,396.792z"
		/>
	<path fill="#FFFFFF" d="M366.139,391.148c0,0.11-0.064,0.174-0.175,0.174c-1.728,0.079-2.489,1.284-2.489,4.201v1.887
		c0,0.111-0.063,0.174-0.174,0.174h-1.411c-0.111,0-0.175-0.063-0.175-0.174v-7.34c0-0.111,0.063-0.175,0.175-0.175h0.792
		c0.111,0,0.175,0.048,0.207,0.143l0.254,0.903c0.094,0.175,0.174,0.207,0.316,0.048c0.635-0.824,1.348-1.221,2.505-1.253
		c0.11,0,0.175,0.064,0.175,0.175V391.148z"/>
	<path fill="#FFFFFF" d="M311.779,416.582c-0.57,0.143-1.109,0.205-1.617,0.205c-2.394,0-3.741-1.553-3.741-4.012
		c0-2.473,1.363-4.01,3.679-4.01c1.902,0,3.059,0.951,3.059,2.52c0,1.221-0.744,1.92-2.33,2.156l-2.488,0.381
		c0.174,0.84,0.809,1.363,1.807,1.363c0.443,0,0.92-0.047,1.252-0.158l0.698-0.174c0.11-0.031,0.19,0.016,0.222,0.127l0.317,1.188
		c0.032,0.111-0.017,0.191-0.127,0.223L311.779,416.582z M310.559,412.078c0.555-0.094,0.856-0.348,0.856-0.76
		c0-0.635-0.491-0.969-1.348-0.969c-1.046,0-1.76,0.65-1.887,2.109L310.559,412.078z"/>
	<path fill="#FFFFFF" d="M319.677,411.857c-0.237,0.379-0.491,0.666-0.745,0.791c-0.08,0.033-0.08,0.096-0.016,0.127
		c0.301,0.191,0.523,0.412,0.761,0.842l1.76,2.789c0.063,0.111,0.016,0.207-0.127,0.207h-1.569c-0.096,0-0.158-0.031-0.223-0.111
		l-1.475-2.395c-0.094-0.127-0.158-0.127-0.253,0l-1.475,2.395c-0.063,0.08-0.126,0.111-0.222,0.111h-1.57
		c-0.143,0-0.189-0.096-0.126-0.207l1.76-2.789c0.253-0.412,0.476-0.666,0.761-0.842c0.031-0.016,0.048-0.031,0.048-0.047
		c0.016-0.08-0.095-0.096-0.144-0.143c-0.221-0.158-0.475-0.428-0.665-0.729l-1.712-2.729c-0.064-0.109-0.017-0.205,0.127-0.205
		h1.553c0.096,0,0.158,0.031,0.223,0.111l1.442,2.361c0.079,0.127,0.175,0.127,0.253,0l1.443-2.361
		c0.063-0.08,0.127-0.111,0.223-0.111h1.553c0.143,0,0.19,0.096,0.127,0.205L319.677,411.857z"/>
	<path fill="#FFFFFF" d="M325.545,416.438c0,0.111-0.064,0.176-0.175,0.176h-1.411c-0.111,0-0.174-0.064-0.174-0.176v-5.943h-0.777
		c-0.111,0-0.174-0.064-0.174-0.176v-1.221c0-0.111,0.063-0.174,0.174-0.174h2.362c0.11,0,0.175,0.063,0.175,0.174V416.438z
		 M325.528,406.182c0,0.682-0.38,1.078-1.046,1.078s-1.063-0.396-1.063-1.078c0-0.666,0.396-1.063,1.063-1.063
		S325.528,405.516,325.528,406.182z"/>
	<path fill="#FFFFFF" d="M329.43,413.205c-1.316-0.334-1.935-1.016-1.935-2.156c0-1.428,1.063-2.283,2.901-2.283
		c0.713,0,1.443,0.111,1.966,0.254l0.698,0.174c0.11,0.031,0.158,0.111,0.127,0.223l-0.334,1.188
		c-0.031,0.111-0.111,0.16-0.222,0.127l-0.697-0.189c-0.429-0.127-1.063-0.191-1.538-0.191c-0.729,0-1.157,0.27-1.157,0.699
		c0,0.363,0.222,0.586,0.714,0.729l1.585,0.412c1.38,0.35,1.997,1.063,1.997,2.203c0,1.49-1.109,2.395-2.98,2.395
		c-0.824,0-1.648-0.111-2.426-0.332l-0.617-0.176c-0.111-0.031-0.159-0.111-0.127-0.221l0.364-1.189
		c0.032-0.096,0.11-0.143,0.206-0.111l0.57,0.158c0.604,0.174,1.443,0.27,2.029,0.27c0.777,0,1.221-0.301,1.221-0.793
		c0-0.379-0.222-0.617-0.744-0.775L329.43,413.205z"/>
	<path fill="#FFFFFF" d="M342.986,408.924c0.111,0,0.174,0.063,0.174,0.174v7.34c0,0.111-0.063,0.176-0.174,0.176h-1.411
		c-0.111,0-0.175-0.064-0.175-0.176v-5.943h-3.979v3.852c0,0.539,0.237,0.84,0.617,0.84c0.143,0,0.286-0.016,0.412-0.063
		c0.111-0.049,0.191-0.033,0.238,0.078l0.508,1.078c0.047,0.096,0.016,0.176-0.08,0.238c-0.285,0.158-0.697,0.27-1.078,0.27
		c-1.506,0-2.377-0.904-2.377-2.441v-3.852h-0.777c-0.111,0-0.174-0.064-0.174-0.176v-1.221c0-0.111,0.063-0.174,0.174-0.174h0.777
		V407.1c0-0.094,0.047-0.158,0.143-0.189l1.41-0.475c0.127-0.033,0.207,0.016,0.207,0.143v2.346H342.986z M341.036,406.182
		c0-0.666,0.396-1.063,1.062-1.063s1.047,0.396,1.047,1.063c0,0.682-0.381,1.078-1.047,1.078S341.036,406.863,341.036,406.182z"/>
	<path fill="#FFFFFF" d="M346.588,409.717c0.095,0.189,0.189,0.174,0.364,0.016c0.618-0.697,1.411-0.967,2.188-0.967
		c1.808,0,2.901,1.125,2.901,2.996v4.676c0,0.111-0.063,0.176-0.174,0.176h-1.412c-0.11,0-0.174-0.064-0.174-0.176v-4.486
		c0-0.998-0.523-1.602-1.379-1.602c-1.174,0-1.855,0.857-1.855,2.395v3.693c0,0.111-0.063,0.176-0.174,0.176h-1.411
		c-0.111,0-0.175-0.064-0.175-0.176v-7.34c0-0.111,0.063-0.174,0.175-0.174h0.792c0.111,0,0.175,0.047,0.191,0.158L346.588,409.717z
		"/>
	<path fill="#FFFFFF" d="M355.657,418.42c0.333,0.096,0.903,0.174,1.363,0.174c1.094,0,2.093-0.428,2.378-1.695
		c0.048-0.697,0.063-0.65,0.08-0.982c0-0.111-0.08-0.191-0.223-0.049c-0.523,0.57-1.284,0.92-2.188,0.92
		c-2.093,0-3.361-1.553-3.361-3.979c0-2.553,1.379-4.043,3.693-4.043c0.65,0,1.332,0.111,1.951,0.363l1.41,0.588
		c0.096,0.031,0.143,0.094,0.143,0.189v6.643c0,2.348-1.379,3.631-3.805,3.631c-0.586,0-1.284-0.078-1.729-0.205l-0.776-0.223
		c-0.11-0.031-0.158-0.111-0.126-0.223l0.363-1.172c0.032-0.096,0.111-0.143,0.207-0.111L355.657,418.42z M358.67,410.619
		c-0.35-0.174-0.825-0.27-1.285-0.27c-1.221,0-1.934,0.889-1.934,2.41c0,1.443,0.65,2.426,1.823,2.426
		c1.204,0,1.87-0.871,1.87-2.393v-1.951L358.67,410.619z"/>
	<path fill="#FFFFFF" d="M296.914,428.031c0.539-0.158,1.078-0.236,1.729-0.236c2.141,0,3.456,1.109,3.456,3.027v4.645
		c0,0.111-0.063,0.176-0.175,0.176h-0.792c-0.111,0-0.175-0.049-0.206-0.143l-0.127-0.492c-0.096-0.223-0.19-0.223-0.396-0.031
		c-0.491,0.539-1.205,0.84-2.172,0.84c-1.76,0-2.742-0.904-2.742-2.395s1.014-2.441,2.885-2.441h1.982v-0.094
		c0-0.969-0.619-1.49-1.792-1.49c-0.46,0-0.856,0.047-1.237,0.158l-0.57,0.174c-0.111,0.031-0.189-0.016-0.222-0.127l-0.349-1.174
		c-0.032-0.109,0.016-0.189,0.127-0.221L296.914,428.031z M298.373,432.359c-0.777,0-1.142,0.365-1.142,0.904
		c0,0.619,0.429,1,1.189,1c1.253,0,1.935-0.619,1.935-1.793v-0.111H298.373z"/>
	<path fill="#FFFFFF" d="M305.445,428.762c0.064,0.174,0.19,0.158,0.302,0.016c0.618-0.697,1.363-0.982,2.22-0.982
		c2.076,0,3.329,1.537,3.329,3.994c0,2.49-1.332,4.027-3.552,4.027c-0.57,0-0.982-0.096-1.442-0.301l-0.429-0.191v3.553
		c0,0.109-0.063,0.174-0.174,0.174h-1.41c-0.111,0-0.176-0.064-0.176-0.174v-10.75c0-0.111,0.064-0.174,0.176-0.174h0.792
		c0.11,0,0.175,0.047,0.19,0.143L305.445,428.762z M306.334,433.945c0.38,0.191,0.824,0.27,1.299,0.27
		c1.222,0,1.919-0.902,1.919-2.426c0-1.506-0.697-2.41-1.87-2.41c-1.189,0-1.824,0.984-1.824,2.363v1.982L306.334,433.945z"/>
	<path fill="#FFFFFF" d="M314.373,428.762c0.063,0.174,0.189,0.158,0.301,0.016c0.619-0.697,1.363-0.982,2.22-0.982
		c2.077,0,3.329,1.537,3.329,3.994c0,2.49-1.332,4.027-3.551,4.027c-0.57,0-0.982-0.096-1.443-0.301l-0.428-0.191v3.553
		c0,0.109-0.063,0.174-0.174,0.174h-1.411c-0.111,0-0.175-0.064-0.175-0.174v-10.75c0-0.111,0.063-0.174,0.175-0.174h0.792
		c0.111,0,0.175,0.047,0.191,0.143L314.373,428.762z M315.261,433.945c0.38,0.191,0.824,0.27,1.3,0.27
		c1.221,0,1.918-0.902,1.918-2.426c0-1.506-0.697-2.41-1.87-2.41c-1.188,0-1.823,0.984-1.823,2.363v1.982L315.261,433.945z"/>
	<path fill="#FFFFFF" d="M323.729,433.787c0,0.27,0.111,0.428,0.317,0.428c0.048,0,0.079,0,0.11,0
		c0.111-0.016,0.175-0.016,0.223,0.096l0.476,1.125c0.048,0.111,0.016,0.191-0.079,0.238c-0.223,0.096-0.492,0.143-0.729,0.143
		c-1.3,0-2.077-0.744-2.077-2.029v-9.338c0-0.111,0.063-0.174,0.175-0.174h1.411c0.111,0,0.174,0.063,0.174,0.174V433.787z"/>
	<path fill="#FFFFFF" d="M328.502,435.467c0,0.111-0.064,0.176-0.175,0.176h-1.411c-0.111,0-0.174-0.064-0.174-0.176v-5.943h-0.777
		c-0.111,0-0.174-0.064-0.174-0.176v-1.221c0-0.111,0.063-0.174,0.174-0.174h2.362c0.11,0,0.175,0.063,0.175,0.174V435.467z
		 M328.485,425.211c0,0.682-0.38,1.078-1.046,1.078s-1.063-0.396-1.063-1.078c0-0.666,0.396-1.063,1.063-1.063
		S328.485,424.545,328.485,425.211z"/>
	<path fill="#FFFFFF" d="M335.479,435.611c-0.477,0.125-0.983,0.205-1.475,0.205c-2.426,0-3.758-1.553-3.758-4.027
		c0-2.457,1.316-3.994,3.805-3.994c0.412,0,0.872,0.047,1.363,0.189l0.682,0.191c0.111,0.031,0.159,0.109,0.127,0.221l-0.364,1.189
		c-0.032,0.096-0.11,0.143-0.206,0.111l-0.539-0.143c-0.396-0.127-0.777-0.176-1.063-0.176c-1.41,0-2.061,0.904-2.061,2.395
		c0,1.539,0.682,2.441,2.029,2.441c0.333,0,0.777-0.063,1.173-0.174l0.523-0.158c0.11-0.031,0.19,0.016,0.222,0.111l0.365,1.188
		c0.031,0.111-0.016,0.191-0.127,0.223L335.479,435.611z"/>
	<path fill="#FFFFFF" d="M339,428.031c0.539-0.158,1.078-0.236,1.728-0.236c2.14,0,3.456,1.109,3.456,3.027v4.645
		c0,0.111-0.063,0.176-0.174,0.176h-0.793c-0.111,0-0.174-0.049-0.206-0.143l-0.127-0.492c-0.095-0.223-0.19-0.223-0.396-0.031
		c-0.491,0.539-1.205,0.84-2.172,0.84c-1.76,0-2.743-0.904-2.743-2.395s1.016-2.441,2.886-2.441h1.981v-0.094
		c0-0.969-0.618-1.49-1.791-1.49c-0.46,0-0.856,0.047-1.236,0.158l-0.571,0.174c-0.11,0.031-0.19-0.016-0.222-0.127l-0.35-1.174
		c-0.031-0.109,0.017-0.189,0.127-0.221L339,428.031z M340.458,432.359c-0.776,0-1.142,0.365-1.142,0.904c0,0.619,0.428,1,1.189,1
		c1.252,0,1.934-0.619,1.934-1.793v-0.111H340.458z"/>
	<path fill="#FFFFFF" d="M354.015,427.953c0.111,0,0.175,0.063,0.175,0.174v7.34c0,0.111-0.063,0.176-0.175,0.176h-1.411
		c-0.111,0-0.174-0.064-0.174-0.176v-5.943h-3.979v3.852c0,0.539,0.237,0.84,0.618,0.84c0.143,0,0.285-0.016,0.412-0.063
		c0.111-0.049,0.19-0.033,0.238,0.078l0.507,1.078c0.048,0.096,0.017,0.176-0.079,0.238c-0.285,0.158-0.697,0.27-1.078,0.27
		c-1.506,0-2.378-0.904-2.378-2.441v-3.852h-0.776c-0.111,0-0.175-0.064-0.175-0.176v-1.221c0-0.111,0.063-0.174,0.175-0.174h0.776
		v-1.824c0-0.094,0.048-0.158,0.143-0.189l1.411-0.475c0.127-0.033,0.206,0.016,0.206,0.143v2.346H354.015z M352.064,425.211
		c0-0.666,0.396-1.063,1.063-1.063s1.047,0.396,1.047,1.063c0,0.682-0.381,1.078-1.047,1.078S352.064,425.893,352.064,425.211z"/>
	<path fill="#FFFFFF" d="M363.244,431.789c0,2.475-1.396,4.027-3.646,4.027c-2.268,0-3.662-1.553-3.662-4.027
		c0-2.441,1.395-3.994,3.662-3.994C361.849,427.795,363.244,429.348,363.244,431.789z M357.68,431.789
		c0,1.523,0.713,2.426,1.918,2.426c1.173,0,1.902-0.902,1.902-2.426c0-1.506-0.729-2.41-1.902-2.41
		C358.393,429.379,357.68,430.283,357.68,431.789z"/>
	<path fill="#FFFFFF" d="M366.29,428.746c0.095,0.189,0.19,0.174,0.364,0.016c0.619-0.697,1.411-0.967,2.188-0.967
		c1.809,0,2.902,1.125,2.902,2.996v4.676c0,0.111-0.064,0.176-0.175,0.176h-1.411c-0.111,0-0.174-0.064-0.174-0.176v-4.486
		c0-0.998-0.523-1.602-1.38-1.602c-1.173,0-1.854,0.857-1.854,2.395v3.693c0,0.111-0.063,0.176-0.175,0.176h-1.411
		c-0.111,0-0.174-0.064-0.174-0.176v-7.34c0-0.111,0.063-0.174,0.174-0.174h0.793c0.111,0,0.174,0.047,0.19,0.158L366.29,428.746z"
		/>
</g>
<g>
	<path fill="#FFFFFF" d="M298.332,67.872c0,0.111-0.063,0.174-0.174,0.174h-1.902c-0.096,0-0.158-0.047-0.206-0.127
		c-0.222-0.539-0.539-1.141-0.824-1.633l-3.394-5.596c-0.205-0.365-0.396-0.729-0.555-1.063c-0.095-0.174-0.254-0.111-0.222,0.063
		c0.095,0.713,0.144,1.348,0.144,2.204v5.977c0,0.111-0.064,0.174-0.176,0.174h-1.458c-0.11,0-0.175-0.063-0.175-0.174V57.138
		c0-0.111,0.064-0.174,0.175-0.174h1.902c0.095,0,0.159,0.048,0.206,0.127c0.238,0.539,0.555,1.142,0.84,1.633l3.394,5.597
		c0.206,0.38,0.396,0.745,0.555,1.062c0.079,0.206,0.237,0.127,0.206-0.063c-0.111-0.697-0.127-1.332-0.127-2.172v-6.009
		c0-0.111,0.063-0.174,0.175-0.174h1.442c0.111,0,0.174,0.063,0.174,0.174V67.872z"/>
	<path fill="#FFFFFF" d="M307.546,64.193c0,2.473-1.396,4.027-3.646,4.027c-2.267,0-3.662-1.554-3.662-4.027
		c0-2.441,1.396-3.995,3.662-3.995C306.15,60.198,307.546,61.752,307.546,64.193z M301.981,64.193c0,1.522,0.714,2.426,1.918,2.426
		c1.173,0,1.903-0.904,1.903-2.426c0-1.506-0.73-2.41-1.903-2.41C302.695,61.784,301.981,62.688,301.981,64.193z"/>
	<path fill="#FFFFFF" d="M313.922,61.166c0.063,0.174,0.189,0.158,0.301,0.016c0.619-0.698,1.363-0.983,2.22-0.983
		c2.077,0,3.329,1.538,3.329,3.995c0,2.489-1.332,4.027-3.551,4.027c-0.57,0-0.982-0.095-1.443-0.301l-0.428-0.19v3.551
		c0,0.111-0.063,0.174-0.174,0.174h-1.411c-0.111,0-0.175-0.063-0.175-0.174V60.531c0-0.111,0.063-0.174,0.175-0.174h0.792
		c0.111,0,0.175,0.047,0.191,0.143L313.922,61.166z M314.81,66.35c0.38,0.19,0.824,0.27,1.3,0.27c1.221,0,1.918-0.904,1.918-2.426
		c0-1.506-0.697-2.41-1.87-2.41c-1.188,0-1.823,0.983-1.823,2.362v1.981L314.81,66.35z"/>
	<path fill="#FFFFFF" d="M323.277,59.167c0,0.761-0.079,1.269-0.254,1.808c-0.063,0.174,0.032,0.285,0.223,0.143
		c0.539-0.586,1.221-0.919,2.124-0.919c1.808,0,2.901,1.125,2.901,2.997v4.677c0,0.111-0.063,0.174-0.174,0.174h-1.412
		c-0.11,0-0.174-0.063-0.174-0.174v-4.487c0-1.015-0.523-1.601-1.379-1.601c-1.285,0-1.84,1.015-1.855,2.394v3.694
		c0,0.111-0.063,0.174-0.174,0.174h-1.411c-0.111,0-0.175-0.063-0.175-0.174V56.853c0-0.111,0.063-0.174,0.175-0.174h1.411
		c0.111,0,0.174,0.063,0.174,0.174V59.167z"/>
	<path fill="#FFFFFF" d="M332.823,71.312c-0.032,0.095-0.095,0.143-0.19,0.143h-1.459c-0.127,0-0.189-0.08-0.143-0.206l0.841-1.998
		c0.428-1.126,0.27-2.077-0.302-3.567l-2.108-5.121c-0.048-0.127,0.017-0.206,0.144-0.206h1.474c0.095,0,0.159,0.047,0.206,0.126
		l1.252,2.997c0.27,0.713,0.556,1.712,0.65,2.314c0.032,0.159,0.207,0.159,0.254-0.016c0.111-0.586,0.412-1.617,0.682-2.299
		l1.236-2.997c0.048-0.079,0.111-0.126,0.207-0.126h1.475c0.126,0,0.189,0.079,0.143,0.206L332.823,71.312z"/>
	<path fill="#FFFFFF" d="M340.309,64.637c-1.316-0.333-1.935-1.015-1.935-2.156c0-1.427,1.063-2.283,2.901-2.283
		c0.713,0,1.443,0.111,1.966,0.253l0.698,0.175c0.11,0.032,0.158,0.111,0.127,0.222l-0.334,1.189
		c-0.031,0.111-0.111,0.159-0.222,0.127l-0.697-0.19c-0.429-0.126-1.063-0.19-1.538-0.19c-0.729,0-1.157,0.27-1.157,0.697
		c0,0.365,0.222,0.587,0.714,0.729l1.585,0.412c1.38,0.349,1.997,1.063,1.997,2.204c0,1.49-1.109,2.394-2.98,2.394
		c-0.824,0-1.648-0.111-2.426-0.333l-0.617-0.174c-0.111-0.032-0.159-0.111-0.127-0.222l0.364-1.189
		c0.032-0.095,0.11-0.143,0.206-0.111l0.57,0.159c0.604,0.174,1.443,0.27,2.029,0.27c0.777,0,1.221-0.301,1.221-0.793
		c0-0.38-0.222-0.618-0.744-0.777L340.309,64.637z"/>
	<path fill="#FFFFFF" d="M348.301,67.872c0,0.111-0.064,0.174-0.175,0.174h-1.411c-0.111,0-0.174-0.063-0.174-0.174v-5.945h-0.777
		c-0.111,0-0.174-0.063-0.174-0.174v-1.221c0-0.111,0.063-0.174,0.174-0.174h2.362c0.11,0,0.175,0.063,0.175,0.174V67.872z
		 M348.284,57.614c0,0.682-0.38,1.078-1.046,1.078s-1.063-0.396-1.063-1.078c0-0.666,0.396-1.063,1.063-1.063
		S348.284,56.948,348.284,57.614z"/>
	<path fill="#FFFFFF" d="M355.277,68.014c-0.477,0.127-0.983,0.206-1.475,0.206c-2.426,0-3.758-1.554-3.758-4.027
		c0-2.458,1.316-3.995,3.805-3.995c0.412,0,0.872,0.047,1.363,0.19l0.682,0.19c0.111,0.032,0.159,0.111,0.127,0.222l-0.364,1.189
		c-0.032,0.095-0.11,0.143-0.206,0.111l-0.539-0.143c-0.396-0.127-0.777-0.174-1.063-0.174c-1.41,0-2.061,0.904-2.061,2.394
		c0,1.538,0.682,2.441,2.029,2.441c0.333,0,0.777-0.063,1.173-0.174l0.523-0.159c0.11-0.032,0.19,0.016,0.222,0.111l0.365,1.189
		c0.031,0.111-0.016,0.19-0.127,0.222L355.277,68.014z"/>
	<path fill="#FFFFFF" d="M358.799,60.436c0.539-0.159,1.078-0.238,1.728-0.238c2.14,0,3.456,1.11,3.456,3.028v4.646
		c0,0.111-0.063,0.174-0.174,0.174h-0.793c-0.111,0-0.174-0.047-0.206-0.143l-0.127-0.492c-0.095-0.222-0.19-0.222-0.396-0.032
		c-0.491,0.539-1.205,0.84-2.172,0.84c-1.76,0-2.743-0.904-2.743-2.394s1.016-2.441,2.886-2.441h1.981V63.29
		c0-0.967-0.618-1.49-1.791-1.49c-0.46,0-0.856,0.048-1.236,0.159l-0.571,0.174c-0.11,0.032-0.19-0.016-0.222-0.127l-0.35-1.173
		c-0.031-0.111,0.017-0.19,0.127-0.222L358.799,60.436z M360.257,64.764c-0.776,0-1.142,0.365-1.142,0.904
		c0,0.618,0.428,0.999,1.189,0.999c1.252,0,1.934-0.618,1.934-1.792v-0.111H360.257z"/>
	<path fill="#FFFFFF" d="M367.758,66.191c0,0.27,0.111,0.428,0.316,0.428c0.048,0,0.08,0,0.111,0
		c0.111-0.016,0.174-0.016,0.223,0.095l0.475,1.125c0.048,0.111,0.016,0.19-0.079,0.238c-0.222,0.095-0.491,0.143-0.729,0.143
		c-1.3,0-2.076-0.745-2.076-2.029v-9.338c0-0.111,0.063-0.174,0.174-0.174h1.411c0.111,0,0.175,0.063,0.175,0.174V66.191z"/>
	<path fill="#FFFFFF" d="M316.807,80.638c0,0.111-0.063,0.174-0.174,0.174c-1.729,0.079-2.489,1.284-2.489,4.201V86.9
		c0,0.111-0.063,0.174-0.175,0.174h-1.41c-0.111,0-0.175-0.063-0.175-0.174v-7.34c0-0.111,0.063-0.174,0.175-0.174h0.793
		c0.11,0,0.174,0.047,0.205,0.143l0.254,0.904c0.096,0.174,0.175,0.206,0.317,0.047c0.634-0.824,1.348-1.221,2.505-1.252
		c0.111,0,0.174,0.063,0.174,0.174V80.638z"/>
	<path fill="#FFFFFF" d="M325.401,83.222c0,2.473-1.396,4.027-3.646,4.027c-2.267,0-3.662-1.554-3.662-4.027
		c0-2.441,1.396-3.995,3.662-3.995C324.006,79.227,325.401,80.781,325.401,83.222z M319.837,83.222c0,1.522,0.714,2.426,1.918,2.426
		c1.173,0,1.903-0.904,1.903-2.426c0-1.506-0.73-2.41-1.903-2.41C320.551,80.813,319.837,81.716,319.837,83.222z"/>
	<path fill="#FFFFFF" d="M328.906,78.197c0,0.761-0.047,1.205-0.253,1.775c-0.079,0.222,0.063,0.333,0.253,0.159
		c0.492-0.571,1.174-0.904,2.094-0.904c2.076,0,3.329,1.538,3.329,3.995c0,2.489-1.38,4.027-3.663,4.027
		c-0.697,0-1.363-0.127-1.98-0.396l-1.396-0.57c-0.095-0.048-0.144-0.111-0.144-0.207V75.882c0-0.111,0.064-0.174,0.176-0.174h1.41
		c0.111,0,0.174,0.063,0.174,0.174V78.197z M329.367,85.378c0.348,0.159,0.824,0.27,1.299,0.27c1.205,0,1.919-0.904,1.919-2.426
		c0-1.506-0.697-2.41-1.839-2.41c-1.269,0-1.855,1.015-1.855,2.362v1.981L329.367,85.378z"/>
	<path fill="#FFFFFF" d="M343.002,83.222c0,2.473-1.395,4.027-3.646,4.027c-2.267,0-3.662-1.554-3.662-4.027
		c0-2.441,1.396-3.995,3.662-3.995C341.607,79.227,343.002,80.781,343.002,83.222z M337.438,83.222c0,1.522,0.714,2.426,1.918,2.426
		c1.174,0,1.903-0.904,1.903-2.426c0-1.506-0.729-2.41-1.903-2.41C338.151,80.813,337.438,81.716,337.438,83.222z"/>
	<path fill="#FFFFFF" d="M348.729,79.386c0.111,0,0.174,0.063,0.174,0.174v1.221c0,0.111-0.063,0.174-0.174,0.174h-1.775v3.853
		c0,0.539,0.237,0.84,0.617,0.84c0.143,0,0.286-0.016,0.412-0.063c0.111-0.047,0.191-0.032,0.238,0.079l0.508,1.078
		c0.047,0.095,0.016,0.174-0.08,0.238c-0.285,0.159-0.697,0.27-1.078,0.27c-1.506,0-2.377-0.904-2.377-2.441v-3.853h-0.777
		c-0.111,0-0.174-0.063-0.174-0.174V79.56c0-0.111,0.063-0.174,0.174-0.174h0.777v-1.823c0-0.095,0.047-0.159,0.143-0.19l1.41-0.476
		c0.127-0.032,0.207,0.016,0.207,0.143v2.347H348.729z"/>
</g>
<g>
	<path fill="#FFFFFF" d="M423.407,219.107c0,0.111-0.063,0.174-0.175,0.174h-3.377v9.306c0,0.111-0.063,0.174-0.174,0.174h-1.459
		c-0.111,0-0.175-0.063-0.175-0.174v-9.306h-3.36c-0.111,0-0.175-0.063-0.175-0.174v-1.253c0-0.111,0.063-0.174,0.175-0.174h8.545
		c0.111,0,0.175,0.063,0.175,0.174V219.107z"/>
	<path fill="#FFFFFF" d="M427.246,228.587c0,0.111-0.063,0.174-0.175,0.174h-1.411c-0.11,0-0.174-0.063-0.174-0.174v-5.945h-0.777
		c-0.11,0-0.174-0.063-0.174-0.174v-1.221c0-0.111,0.063-0.174,0.174-0.174h2.362c0.111,0,0.175,0.063,0.175,0.174V228.587z
		 M427.23,218.33c0,0.682-0.381,1.078-1.047,1.078s-1.062-0.396-1.062-1.078c0-0.666,0.396-1.063,1.062-1.063
		S427.23,217.664,427.23,218.33z"/>
	<path fill="#FFFFFF" d="M430.671,221.85c0.095,0.19,0.19,0.19,0.381,0.016c0.602-0.682,1.3-0.951,2.061-0.951
		c0.903,0,1.633,0.444,2.061,1.062c0.207,0.222,0.35,0.175,0.539,0c0.698-0.824,1.411-1.062,2.173-1.062
		c1.775,0,2.79,1.125,2.79,2.997v4.677c0,0.111-0.063,0.174-0.175,0.174h-1.427c-0.11,0-0.174-0.063-0.174-0.174v-4.487
		c0-0.999-0.413-1.601-1.253-1.601c-1.205,0-1.744,0.936-1.744,2.394v3.694c0,0.111-0.063,0.174-0.174,0.174h-1.427
		c-0.111,0-0.175-0.063-0.175-0.174v-4.502c0-0.983-0.444-1.585-1.252-1.585c-1.222,0-1.744,0.936-1.744,2.394v3.694
		c0,0.111-0.063,0.174-0.175,0.174h-1.411c-0.11,0-0.174-0.063-0.174-0.174v-7.34c0-0.111,0.063-0.174,0.174-0.174h0.793
		c0.111,0,0.175,0.047,0.19,0.158L430.671,221.85z"/>
	<path fill="#FFFFFF" d="M447.685,228.73c-0.57,0.143-1.109,0.206-1.617,0.206c-2.394,0-3.741-1.554-3.741-4.011
		c0-2.474,1.363-4.011,3.678-4.011c1.903,0,3.061,0.951,3.061,2.521c0,1.221-0.745,1.918-2.331,2.156l-2.489,0.38
		c0.175,0.84,0.809,1.364,1.808,1.364c0.444,0,0.92-0.048,1.253-0.159l0.697-0.174c0.111-0.032,0.19,0.016,0.222,0.127l0.317,1.189
		c0.031,0.111-0.016,0.19-0.127,0.222L447.685,228.73z M446.464,224.228c0.555-0.095,0.856-0.349,0.856-0.761
		c0-0.634-0.491-0.967-1.348-0.967c-1.046,0-1.76,0.65-1.887,2.108L446.464,224.228z"/>
	<path fill="#FFFFFF" d="M458.198,221.073c0.111,0,0.175,0.063,0.175,0.174v1.221c0,0.111-0.063,0.174-0.175,0.174h-1.775v3.853
		c0,0.539,0.237,0.84,0.618,0.84c0.143,0,0.285-0.016,0.412-0.063c0.111-0.047,0.19-0.032,0.238,0.079l0.507,1.078
		c0.048,0.095,0.016,0.174-0.079,0.238c-0.285,0.159-0.697,0.27-1.078,0.27c-1.506,0-2.378-0.904-2.378-2.441v-3.853h-0.777
		c-0.11,0-0.174-0.063-0.174-0.174v-1.221c0-0.111,0.063-0.174,0.174-0.174h0.777v-1.823c0-0.095,0.048-0.159,0.143-0.19
		l1.411-0.476c0.127-0.032,0.206,0.016,0.206,0.143v2.347H458.198z"/>
	<path fill="#FFFFFF" d="M466.888,224.909c0,2.473-1.396,4.027-3.646,4.027c-2.267,0-3.662-1.554-3.662-4.027
		c0-2.441,1.396-3.995,3.662-3.995C465.492,220.914,466.888,222.468,466.888,224.909z M461.323,224.909
		c0,1.522,0.713,2.426,1.918,2.426c1.174,0,1.902-0.904,1.902-2.426c0-1.506-0.729-2.41-1.902-2.41
		C462.036,222.5,461.323,223.403,461.323,224.909z"/>
	<path fill="#FFFFFF" d="M394.018,240.878c0.096,0.19,0.189,0.19,0.381,0.016c0.602-0.682,1.3-0.951,2.061-0.951
		c0.904,0,1.633,0.444,2.061,1.062c0.207,0.222,0.35,0.175,0.539,0c0.698-0.824,1.412-1.062,2.172-1.062
		c1.776,0,2.791,1.125,2.791,2.997v4.677c0,0.111-0.063,0.174-0.175,0.174h-1.427c-0.111,0-0.174-0.063-0.174-0.174v-4.487
		c0-0.999-0.412-1.601-1.253-1.601c-1.205,0-1.743,0.935-1.743,2.394v3.694c0,0.111-0.064,0.174-0.176,0.174h-1.426
		c-0.111,0-0.175-0.063-0.175-0.174v-4.502c0-0.983-0.444-1.585-1.253-1.585c-1.221,0-1.744,0.935-1.744,2.394v3.694
		c0,0.111-0.063,0.174-0.174,0.174h-1.41c-0.111,0-0.176-0.063-0.176-0.174v-7.34c0-0.111,0.064-0.174,0.176-0.174h0.792
		c0.11,0,0.175,0.047,0.19,0.158L394.018,240.878z"/>
	<path fill="#FFFFFF" d="M407.021,240.181c0.539-0.159,1.078-0.238,1.728-0.238c2.141,0,3.457,1.11,3.457,3.028v4.645
		c0,0.111-0.063,0.174-0.175,0.174h-0.792c-0.111,0-0.175-0.047-0.207-0.143l-0.127-0.492c-0.095-0.222-0.189-0.222-0.396-0.032
		c-0.49,0.539-1.204,0.84-2.172,0.84c-1.76,0-2.742-0.904-2.742-2.394s1.015-2.441,2.885-2.441h1.982v-0.095
		c0-0.967-0.619-1.49-1.791-1.49c-0.461,0-0.857,0.048-1.237,0.159l-0.571,0.174c-0.11,0.032-0.189-0.016-0.221-0.127l-0.35-1.173
		c-0.031-0.111,0.016-0.19,0.127-0.222L407.021,240.181z M408.479,244.509c-0.776,0-1.141,0.365-1.141,0.904
		c0,0.618,0.428,0.999,1.189,0.999c1.252,0,1.934-0.618,1.934-1.792v-0.111H408.479z"/>
	<path fill="#FFFFFF" d="M418.643,241.354c0,0.111-0.063,0.174-0.174,0.174c-1.729,0.079-2.489,1.284-2.489,4.201v1.887
		c0,0.111-0.063,0.174-0.175,0.174h-1.411c-0.11,0-0.174-0.063-0.174-0.174v-7.34c0-0.111,0.063-0.174,0.174-0.174h0.793
		c0.111,0,0.175,0.047,0.206,0.143l0.254,0.904c0.095,0.174,0.174,0.206,0.316,0.047c0.635-0.824,1.348-1.221,2.506-1.252
		c0.11,0,0.174,0.063,0.174,0.174V241.354z"/>
	<path fill="#FFFFFF" d="M427.237,247.584c0.079,0.111,0.016,0.206-0.127,0.206h-1.569c-0.096,0-0.159-0.032-0.223-0.111
		l-1.094-1.76c-0.443-0.666-0.888-1.221-1.76-1.221h-0.237v2.917c0,0.111-0.063,0.174-0.175,0.174h-1.411
		c-0.11,0-0.174-0.063-0.174-0.174v-11.019c0-0.111,0.063-0.174,0.174-0.174h1.411c0.111,0,0.175,0.063,0.175,0.174v6.516h0.237
		c0.777,0,1.237-0.682,1.665-1.3l1.046-1.601c0.063-0.079,0.127-0.111,0.223-0.111h1.554c0.143,0,0.189,0.095,0.126,0.206
		l-1.395,2.251c-0.412,0.603-0.872,1.046-1.38,1.237c-0.063,0.032-0.079,0.095,0,0.127c0.556,0.238,1.078,0.682,1.475,1.284
		L427.237,247.584z"/>
	<path fill="#FFFFFF" d="M433.39,247.759c-0.57,0.143-1.109,0.206-1.617,0.206c-2.394,0-3.741-1.554-3.741-4.011
		c0-2.474,1.363-4.011,3.678-4.011c1.903,0,3.061,0.951,3.061,2.521c0,1.221-0.745,1.918-2.331,2.156L429.949,245
		c0.175,0.84,0.809,1.363,1.808,1.363c0.444,0,0.92-0.048,1.253-0.159l0.697-0.174c0.111-0.032,0.19,0.016,0.222,0.127l0.317,1.189
		c0.031,0.111-0.016,0.19-0.127,0.222L433.39,247.759z M432.169,243.256c0.555-0.095,0.856-0.349,0.856-0.761
		c0-0.634-0.491-0.967-1.348-0.967c-1.046,0-1.76,0.65-1.887,2.108L432.169,243.256z"/>
	<path fill="#FFFFFF" d="M440.573,240.102c0.111,0,0.175,0.063,0.175,0.174v1.221c0,0.111-0.063,0.174-0.175,0.174h-1.775v3.853
		c0,0.539,0.237,0.84,0.618,0.84c0.143,0,0.285-0.016,0.412-0.063c0.111-0.047,0.19-0.032,0.238,0.079l0.507,1.078
		c0.048,0.095,0.016,0.174-0.079,0.238c-0.285,0.159-0.697,0.27-1.078,0.27c-1.506,0-2.378-0.904-2.378-2.441v-3.853h-0.777
		c-0.11,0-0.174-0.063-0.174-0.174v-1.221c0-0.111,0.063-0.174,0.174-0.174h0.777v-1.823c0-0.095,0.048-0.159,0.143-0.19
		l1.411-0.476c0.127-0.032,0.206,0.016,0.206,0.143v2.347H440.573z"/>
	<path fill="#FFFFFF" d="M455.431,244.683c-0.364,1.252-0.587,2.014-0.809,2.949c-0.016,0.111-0.079,0.159-0.19,0.159h-1.744
		c-0.11,0-0.174-0.047-0.189-0.143c-0.143-0.539-0.317-1.094-0.476-1.665l-0.571-1.681c-0.095-0.317-0.222-0.84-0.285-1.157
		c-0.048-0.206-0.175-0.19-0.222,0c-0.063,0.333-0.19,0.872-0.286,1.157l-0.555,1.681c-0.174,0.57-0.349,1.125-0.476,1.648
		c-0.016,0.111-0.079,0.159-0.19,0.159h-1.76c-0.11,0-0.174-0.047-0.189-0.159c-0.223-0.935-0.444-1.68-0.809-2.949l-1.301-4.392
		c-0.047-0.111,0.017-0.19,0.143-0.19h1.428c0.11,0,0.174,0.047,0.206,0.143l0.809,2.774c0.27,1.015,0.428,1.744,0.57,2.537
		c0.031,0.174,0.206,0.174,0.254,0c0.19-0.793,0.476-1.776,0.761-2.806l0.84-2.505c0.032-0.095,0.096-0.143,0.19-0.143h0.951
		c0.096,0,0.159,0.047,0.19,0.143l0.841,2.505c0.301,1.015,0.586,2.013,0.761,2.806c0.047,0.174,0.222,0.174,0.254,0
		c0.143-0.793,0.301-1.49,0.57-2.537l0.809-2.774c0.031-0.095,0.095-0.143,0.206-0.143h1.427c0.127,0,0.19,0.079,0.143,0.19
		L455.431,244.683z"/>
	<path fill="#FFFFFF" d="M460.744,247.616c0,0.111-0.063,0.174-0.175,0.174h-1.411c-0.11,0-0.174-0.063-0.174-0.174v-5.945h-0.777
		c-0.11,0-0.174-0.063-0.174-0.174v-1.221c0-0.111,0.063-0.174,0.174-0.174h2.362c0.111,0,0.175,0.063,0.175,0.174V247.616z
		 M460.729,237.359c0,0.682-0.381,1.078-1.047,1.078s-1.062-0.396-1.062-1.078c0-0.666,0.396-1.063,1.062-1.063
		S460.729,236.693,460.729,237.359z"/>
	<path fill="#FFFFFF" d="M466.959,240.102c0.111,0,0.175,0.063,0.175,0.174v1.221c0,0.111-0.063,0.174-0.175,0.174h-1.775v3.853
		c0,0.539,0.237,0.84,0.618,0.84c0.143,0,0.285-0.016,0.412-0.063c0.111-0.047,0.19-0.032,0.238,0.079l0.507,1.078
		c0.048,0.095,0.016,0.174-0.079,0.238c-0.285,0.159-0.697,0.27-1.078,0.27c-1.506,0-2.378-0.904-2.378-2.441v-3.853h-0.777
		c-0.11,0-0.174-0.063-0.174-0.174v-1.221c0-0.111,0.063-0.174,0.174-0.174h0.777v-1.823c0-0.095,0.048-0.159,0.143-0.19
		l1.411-0.476c0.127-0.032,0.206,0.016,0.206,0.143v2.347H466.959z"/>
	<path fill="#FFFFFF" d="M470.655,238.913c0,0.761-0.079,1.268-0.254,1.807c-0.063,0.174,0.031,0.285,0.222,0.143
		c0.539-0.586,1.221-0.919,2.125-0.919c1.807,0,2.901,1.125,2.901,2.997v4.677c0,0.111-0.063,0.174-0.175,0.174h-1.411
		c-0.111,0-0.174-0.063-0.174-0.174v-4.487c0-1.015-0.523-1.601-1.38-1.601c-1.284,0-1.839,1.015-1.854,2.394v3.694
		c0,0.111-0.063,0.174-0.175,0.174h-1.411c-0.11,0-0.174-0.063-0.174-0.174v-11.019c0-0.111,0.063-0.174,0.174-0.174h1.411
		c0.111,0,0.175,0.063,0.175,0.174V238.913z"/>
	<path fill="#FFFFFF" d="M479.947,247.616c0,0.111-0.063,0.174-0.175,0.174h-1.411c-0.11,0-0.174-0.063-0.174-0.174v-5.945h-0.777
		c-0.11,0-0.174-0.063-0.174-0.174v-1.221c0-0.111,0.063-0.174,0.174-0.174h2.362c0.111,0,0.175,0.063,0.175,0.174V247.616z
		 M479.932,237.359c0,0.682-0.381,1.078-1.047,1.078s-1.062-0.396-1.062-1.078c0-0.666,0.396-1.063,1.062-1.063
		S479.932,236.693,479.932,237.359z"/>
	<path fill="#FFFFFF" d="M483.372,240.894c0.095,0.19,0.19,0.174,0.364,0.016c0.618-0.698,1.411-0.967,2.188-0.967
		c1.807,0,2.901,1.125,2.901,2.997v4.677c0,0.111-0.063,0.174-0.175,0.174h-1.411c-0.111,0-0.174-0.063-0.174-0.174v-4.487
		c0-0.999-0.523-1.601-1.38-1.601c-1.173,0-1.854,0.856-1.854,2.394v3.694c0,0.111-0.063,0.174-0.175,0.174h-1.411
		c-0.11,0-0.174-0.063-0.174-0.174v-7.34c0-0.111,0.063-0.174,0.174-0.174h0.793c0.111,0,0.175,0.047,0.19,0.158L483.372,240.894z"
		/>
	<path fill="#FFFFFF" d="M401.637,259.209c0.539-0.158,1.078-0.237,1.728-0.237c2.14,0,3.456,1.11,3.456,3.028v4.645
		c0,0.111-0.063,0.175-0.174,0.175h-0.793c-0.111,0-0.174-0.048-0.206-0.143l-0.127-0.491c-0.095-0.223-0.19-0.223-0.396-0.032
		c-0.491,0.539-1.205,0.841-2.172,0.841c-1.76,0-2.743-0.904-2.743-2.395s1.016-2.441,2.886-2.441h1.981v-0.096
		c0-0.967-0.618-1.49-1.791-1.49c-0.46,0-0.856,0.049-1.236,0.159l-0.571,0.175c-0.11,0.031-0.19-0.016-0.222-0.127l-0.35-1.174
		c-0.031-0.111,0.017-0.189,0.127-0.222L401.637,259.209z M403.095,263.537c-0.776,0-1.142,0.365-1.142,0.904
		c0,0.618,0.428,0.998,1.189,0.998c1.252,0,1.934-0.617,1.934-1.791v-0.111H403.095z"/>
	<path fill="#FFFFFF" d="M412.688,258.1c0-1.76,1.031-2.822,2.759-2.822c0.349,0,0.618,0.048,1.047,0.19l0.285,0.095
		c0.095,0.049,0.143,0.127,0.111,0.223l-0.381,1.173c-0.032,0.095-0.111,0.144-0.206,0.111l-0.254-0.079
		c-0.222-0.08-0.364-0.111-0.603-0.111c-0.618,0-0.999,0.46-0.999,1.221v1.031h1.776c0.11,0,0.174,0.063,0.174,0.174v1.221
		c0,0.111-0.063,0.174-0.174,0.174h-1.776v5.945c0,0.111-0.063,0.175-0.174,0.175h-1.411c-0.111,0-0.175-0.063-0.175-0.175v-5.945
		h-0.776c-0.111,0-0.175-0.063-0.175-0.174v-1.221c0-0.111,0.063-0.174,0.175-0.174h0.776V258.1z"/>
	<path fill="#FFFFFF" d="M422.853,266.787c-0.57,0.143-1.109,0.207-1.617,0.207c-2.394,0-3.741-1.555-3.741-4.012
		c0-2.473,1.363-4.011,3.678-4.011c1.903,0,3.061,0.951,3.061,2.521c0,1.221-0.745,1.918-2.331,2.156l-2.489,0.381
		c0.175,0.84,0.809,1.363,1.808,1.363c0.444,0,0.92-0.048,1.253-0.158l0.697-0.175c0.111-0.032,0.19,0.016,0.222,0.127l0.317,1.188
		c0.031,0.111-0.016,0.191-0.127,0.223L422.853,266.787z M421.632,262.285c0.555-0.096,0.856-0.349,0.856-0.762
		c0-0.633-0.491-0.967-1.348-0.967c-1.046,0-1.76,0.65-1.887,2.109L421.632,262.285z"/>
	<path fill="#FFFFFF" d="M435.395,263.712c-0.364,1.253-0.587,2.014-0.809,2.948c-0.016,0.111-0.079,0.159-0.19,0.159h-1.744
		c-0.11,0-0.174-0.048-0.189-0.143c-0.144-0.539-0.317-1.095-0.476-1.665l-0.571-1.68c-0.095-0.318-0.222-0.841-0.285-1.158
		c-0.048-0.205-0.175-0.189-0.222,0c-0.063,0.334-0.19,0.872-0.286,1.158l-0.555,1.68c-0.174,0.57-0.349,1.126-0.476,1.648
		c-0.016,0.111-0.079,0.159-0.19,0.159h-1.76c-0.11,0-0.174-0.048-0.189-0.159c-0.223-0.935-0.444-1.68-0.809-2.948l-1.301-4.392
		c-0.047-0.111,0.017-0.189,0.143-0.189h1.428c0.11,0,0.174,0.047,0.206,0.143l0.809,2.773c0.27,1.016,0.428,1.744,0.57,2.537
		c0.031,0.174,0.206,0.174,0.254,0c0.19-0.793,0.476-1.775,0.761-2.807l0.84-2.504c0.032-0.096,0.096-0.143,0.19-0.143h0.951
		c0.096,0,0.159,0.047,0.19,0.143l0.841,2.504c0.301,1.016,0.586,2.014,0.761,2.807c0.048,0.174,0.222,0.174,0.254,0
		c0.143-0.793,0.301-1.49,0.57-2.537l0.809-2.773c0.031-0.096,0.095-0.143,0.206-0.143h1.427c0.127,0,0.19,0.078,0.143,0.189
		L435.395,263.712z"/>
	<path fill="#FFFFFF" d="M451.315,263.712c-0.364,1.253-0.587,2.014-0.809,2.948c-0.016,0.111-0.079,0.159-0.19,0.159h-1.744
		c-0.11,0-0.174-0.048-0.189-0.143c-0.143-0.539-0.317-1.095-0.476-1.665l-0.571-1.68c-0.095-0.318-0.222-0.841-0.285-1.158
		c-0.048-0.205-0.175-0.189-0.222,0c-0.063,0.334-0.19,0.872-0.286,1.158l-0.555,1.68c-0.174,0.57-0.349,1.126-0.476,1.648
		c-0.016,0.111-0.079,0.159-0.19,0.159h-1.76c-0.11,0-0.174-0.048-0.189-0.159c-0.223-0.935-0.444-1.68-0.809-2.948l-1.301-4.392
		c-0.047-0.111,0.017-0.189,0.143-0.189h1.428c0.11,0,0.174,0.047,0.206,0.143l0.809,2.773c0.27,1.016,0.428,1.744,0.57,2.537
		c0.031,0.174,0.206,0.174,0.254,0c0.19-0.793,0.476-1.775,0.761-2.807l0.84-2.504c0.032-0.096,0.096-0.143,0.19-0.143h0.951
		c0.096,0,0.159,0.047,0.19,0.143l0.841,2.504c0.301,1.016,0.586,2.014,0.761,2.807c0.047,0.174,0.222,0.174,0.254,0
		c0.143-0.793,0.301-1.49,0.57-2.537l0.809-2.773c0.031-0.096,0.095-0.143,0.206-0.143h1.427c0.127,0,0.19,0.078,0.143,0.189
		L451.315,263.712z"/>
	<path fill="#FFFFFF" d="M459.134,266.787c-0.57,0.143-1.109,0.207-1.617,0.207c-2.394,0-3.741-1.555-3.741-4.012
		c0-2.473,1.363-4.011,3.678-4.011c1.903,0,3.061,0.951,3.061,2.521c0,1.221-0.745,1.918-2.331,2.156l-2.489,0.381
		c0.175,0.84,0.809,1.363,1.808,1.363c0.444,0,0.92-0.048,1.253-0.158l0.697-0.175c0.111-0.032,0.19,0.016,0.222,0.127l0.317,1.188
		c0.031,0.111-0.016,0.191-0.127,0.223L459.134,266.787z M457.913,262.285c0.555-0.096,0.856-0.349,0.856-0.762
		c0-0.633-0.491-0.967-1.348-0.967c-1.046,0-1.76,0.65-1.887,2.109L457.913,262.285z"/>
	<path fill="#FFFFFF" d="M467.236,266.787c-0.57,0.143-1.109,0.207-1.617,0.207c-2.394,0-3.741-1.555-3.741-4.012
		c0-2.473,1.363-4.011,3.678-4.011c1.903,0,3.061,0.951,3.061,2.521c0,1.221-0.745,1.918-2.331,2.156l-2.489,0.381
		c0.175,0.84,0.809,1.363,1.808,1.363c0.444,0,0.92-0.048,1.253-0.158l0.697-0.175c0.111-0.032,0.19,0.016,0.222,0.127l0.317,1.188
		c0.031,0.111-0.016,0.191-0.127,0.223L467.236,266.787z M466.016,262.285c0.555-0.096,0.856-0.349,0.856-0.762
		c0-0.633-0.491-0.967-1.348-0.967c-1.046,0-1.76,0.65-1.887,2.109L466.016,262.285z"/>
	<path fill="#FFFFFF" d="M477.131,266.613c0.079,0.111,0.016,0.206-0.127,0.206h-1.569c-0.096,0-0.159-0.032-0.223-0.11l-1.094-1.76
		c-0.443-0.666-0.888-1.221-1.76-1.221h-0.237v2.916c0,0.111-0.063,0.175-0.175,0.175h-1.411c-0.11,0-0.174-0.063-0.174-0.175
		v-11.018c0-0.111,0.063-0.175,0.174-0.175h1.411c0.111,0,0.175,0.063,0.175,0.175v6.516h0.237c0.777,0,1.237-0.682,1.665-1.301
		l1.046-1.601c0.063-0.079,0.127-0.11,0.223-0.11h1.554c0.143,0,0.189,0.094,0.126,0.205l-1.395,2.252
		c-0.412,0.602-0.872,1.046-1.38,1.236c-0.063,0.031-0.079,0.096,0,0.127c0.556,0.238,1.078,0.682,1.475,1.284L477.131,266.613z"/>
	<path fill="#FFFFFF" d="M480.431,263.41c-1.316-0.332-1.935-1.014-1.935-2.156c0-1.426,1.063-2.282,2.901-2.282
		c0.714,0,1.442,0.11,1.966,0.253l0.697,0.176c0.111,0.031,0.159,0.11,0.127,0.221l-0.333,1.189
		c-0.031,0.111-0.11,0.158-0.222,0.127l-0.697-0.19c-0.429-0.126-1.063-0.19-1.538-0.19c-0.729,0-1.157,0.27-1.157,0.697
		c0,0.365,0.222,0.588,0.713,0.73l1.586,0.412c1.379,0.349,1.997,1.063,1.997,2.203c0,1.49-1.109,2.395-2.98,2.395
		c-0.824,0-1.648-0.111-2.425-0.334l-0.619-0.174c-0.11-0.031-0.158-0.111-0.127-0.222l0.365-1.189
		c0.031-0.095,0.111-0.143,0.206-0.11l0.57,0.158c0.603,0.174,1.443,0.27,2.029,0.27c0.777,0,1.221-0.301,1.221-0.793
		c0-0.381-0.222-0.618-0.745-0.777L480.431,263.41z"/>
</g>
</svg>
